<svg height="93" viewBox="0 0 94 93" width="94" xmlns="http://www.w3.org/2000/svg"><g fill="none" fill-rule="evenodd" opacity=".9" transform="translate(-.685083 -1.4)"><path d="m1.65855335 48.0477114c0-12.3649539 4.81372801-23.9901884 13.55440415-32.7338837 8.7406762-8.74369544 20.3618964-13.55908622 32.7225806-13.55908622 12.3608766 0 23.9820968 4.81539078 32.722773 13.55908622 8.7406762 8.7436953 13.5544042 20.3689298 13.5544042 32.7338837 0 25.5261884-20.7598031 46.2931623-46.2771772 46.2931623-12.3606842 0-23.9819044-4.8153907-32.7225806-13.5590861-8.74067614-8.7436954-13.55440415-20.3689299-13.55440415-32.7340762" fill="#eee"/><path d="m47.9355381 3.66262124c-24.5044333 0-44.36976379 19.87219236-44.36976379 44.38509016s19.86533049 44.3852826 44.36976379 44.3852826c24.5044334 0 44.3699562-19.8723848 44.3699562-44.3852826s-19.8655228-44.38509016-44.3699562-44.38509016" fill="#0a0f35"/><path d="m47.9355381 76.3996473c-15.6525972 0-28.3419535-12.6937395-28.3419535-28.3519359 0-15.658004 12.6893563-28.3517435 28.3419535-28.3517435 15.6527896 0 28.3421459 12.6937395 28.3421459 28.3517435 0 15.6581964-12.6893563 28.3519359-28.3421459 28.3519359" fill="#eee"/><path d="m21.4169548 48.0477114h26.5185833v-26.5277435c-14.6456184 0-26.5185833 11.8770662-26.5185833 26.5277435" fill="#0a0f35"/><path d="m47.9355381 48.0477114v26.5279359c14.6458108 0 26.5187757-11.8770661 26.5187757-26.5279359z" fill="#0a0f35"/><g fill="#eee"><path d="m27.1076544 20.9968737c-.9394751-.9132505-2.3916708-1.1887454-3.7552078-.3432144.2605913-.6750781.1542393-1.364008.0159624-1.7441603-.5873402-1.0715832-.7923516-1.205483-1.2764168-1.6117996-1.5670099-1.3153347-3.2161396-.1923848-4.395628 1.2137555l-5.6989693 6.7936834 8.9585728 7.5197435 6.0097558-7.1644089c1.3731529-1.637002 1.5854724-3.2599599.1419309-4.6635992"/><path d="m49.4200434 17.7688497 3.0765165-8.157499v8.157499h2.3382063v-11.6829499h-3.5130791l-3.1951768 8.3646974h.0330787l-3.1955615-8.3646974h-3.5128868v11.6829499h2.3380141v-8.157499l3.0767088 8.157499z"/><path d="m80.856399 22.6290661-4.4021668 6.2346133 6.8246086-3.2411063 1.8070231 2.2322405-10.7417485 5.2088177-2.1206943-2.6408658 4.2250416-6.1799759-.0250014-.030974-6.9213447 2.8492185-2.1414647-2.6241283 7.3267517-9.4276232 1.8072155 2.2324328-4.5883309 6.0037515 7.0113496-3.0112064z"/></g><path d="m18.9416255 20.1928978c.3965604-.4728818 1.2927638-.4534509 1.8689496.0302044.6338812.5319439.6354198 1.2860922.2098193 1.7934108l-3.3840335 4.034501-2.1176172-1.7774429z" fill="#092e84"/><path d="m24.9629203 24.9523046-3.5680821 4.2536273-2.2374316-1.8780602 3.5969299-4.2882565c.4063687-.4842324 1.3118034-.6252505 1.9226064-.1125451.6913845.5802325.7598498 1.4603928.2859774 2.0252345" fill="#092e84"/></g></svg>