<svg height="45" viewBox="0 0 260 45" width="260" xmlns="http://www.w3.org/2000/svg"><g fill="#eee" fill-rule="evenodd" opacity=".9" transform="translate(0 -.6)"><path d="m13.0965961 1.75015c.7658155-.12905 15.5797384-.0464 17.0926558-.0464 1.2163799 0 4.5905743-.14355 5.5032191.18705 1.3516931.4901 1.8857486 1.79655 2.614137 3.11315.6650503 1.20205 1.3891202 2.3867 2.067126 3.60035l3.5239027 6.13205c.0057581.0116.0129556.0261.0201531.03625.005758.0116.0129555.0261.0187135.03625 1.1314492 2.06045 2.5076138 4.33405 3.7024011 6.4525.9946964 1.7632.6837638 2.581-.272066 4.2021l-3.109326 5.4201c-2.0800815 3.57425-4.1270544 7.27755-6.2229704 10.8373-.7514205 1.27745-1.1789528 2.4882-2.883324 2.7869-.7341465.12905-15.6200445.04495-17.1056114.04495-1.2235773 0-4.5718607.1421-5.4960215-.18415-.7255094-.25665-1.2437304-.7482-1.574816-1.2905-.3670732-.6032-.6866429-1.2006-1.04651855-1.8125l-8.2886569-14.44055c-.76869448-1.37605-1.76626989-2.6129-1.62663813-4.02085.1022047-1.03385 1.34881409-2.8594 1.89006713-3.828 2.02394089-3.61775 4.16304199-7.19635 6.22297044-10.83585.6751268-1.1919 1.36608813-2.40555 2.06424701-3.60615.7600574-1.30645 1.1818317-2.494 2.906356-2.784zm2.1981208 18.17575c-.6708083 0-1.2206984.5539-1.2206984 1.23105 0 .6757.5498901 1.2296 1.2206984 1.2296h17.6641383c.6722478 0 1.2221379-.5539 1.2221379-1.2296 0-.67715-.5498901-1.23105-1.2221379-1.23105zm2.1894837-3.93965c-.6722478 0-1.2221379.5539-1.2221379 1.23105 0 .6757.5498901 1.2296 1.2221379 1.2296h13.302445c.6708083 0 1.2206983-.5539 1.2206983-1.2296 0-.67715-.54989-1.23105-1.2206983-1.23105zm2.1578146-3.9266c-.6722478 0-1.2221379.5539-1.2221379 1.2296 0 .67715.5498901 1.23105 1.2221379 1.23105h8.9709812c.6708083 0 1.2206984-.5539 1.2206984-1.23105 0-.6757-.5498901-1.2296-1.2206984-1.2296zm-2.1578146 14.26655h13.302445c.6708083 0 1.2206983-.5539 1.2206983-1.2296 0-.67715-.54989-1.23105-1.2206983-1.23105h-13.302445c-.6722478 0-1.2221379.5539-1.2221379 1.23105 0 .6757.5498901 1.2296 1.2221379 1.2296zm2.7897563 3.9266h7.6984608c.6708083 0 1.2206983-.5539 1.2206983-1.2296 0-.67715-.54989-1.23105-1.2206983-1.23105h-7.6984608c-.6722478 0-1.2221378.5539-1.2221378 1.23105 0 .6757.54989 1.2296 1.2221378 1.2296zm2.1750887 3.9498h3.3511624c.6736873 0 1.2221379-.5539 1.2221379-1.2296 0-.67715-.5484506-1.23105-1.2221379-1.23105h-3.3511624c-.6722478 0-1.2221379.5539-1.2221379 1.23105 0 .6757.5498901 1.2296 1.2221379 1.2296z"/><path d="m63.2387959 3.9092v13.5691c2.4212436-2.04015 5.50034-3.25815 8.901885-3.25815 8.059776 0 14.30146 5.16635 14.30146 15.2511s-6.3626022 15.3323-14.2597144 15.3323c-3.3770735 0-6.4878389-1.2644-8.9436306-3.36835v.77575c0 3.3466-5.8184702 3.3466-5.8184702 0v-38.30175c0-3.34805 5.8184702-3.34805 5.8184702 0zm0 18.9312v13.4415c1.9044621 1.93285 4.6855814 3.2741 7.4177577 3.2741 5.4110909 0 9.7411152-3.4162 9.7411152-10.08475s-4.3300243-10.08475-9.7411152-10.08475c-2.6731566 0-5.5147351 1.47755-7.4177577 3.4539z"/><path d="m188.941935 3.9092v13.5691c2.434199-2.0416 5.527691-3.25815 8.94651-3.25815 8.098642 0 14.370556 5.16635 14.370556 15.2511s-6.392832 15.3323-14.33025 15.3323c-3.392908 0-6.519508-1.2644-8.986816-3.36835v.77575c0 3.3466-5.84726 3.3466-5.84726 0v-38.30175c0-3.34805 5.84726-3.34805 5.84726 0zm0 18.9312v13.4415c1.913099 1.93285 4.707174 3.2741 7.453745 3.2741 5.437002 0 9.788619-3.4162 9.788619-10.08475s-4.351617-10.08475-9.788619-10.08475c-2.686112 0-5.542085 1.47755-7.453745 3.4539z"/><path d="m96.389105 17.12015-.0230321 14.15055c0 5.2867 2.1247061 7.99965 7.1212201 7.99965 4.432229 0 6.883702-3.1958 7.766117-4.79225v-17.35795c0-1.7255 1.484128-2.90725 2.98265-2.92465 1.527313-.01595 3.07046 1.1658 3.07046 2.92465v19.8186c0 2.25475 1.072429 2.7579 2.208197 2.7579 1.079627 0 1.704371-.435 2.537843-.4089 1.868475-.02755 2.98121 2.3983 1.347375 3.8483-1.12857.98455-3.639063 1.6646-6.097734 1.6646-2.838699 0-4.913023-1.3079-5.700431-4.37465-2.307523 3.04065-6.345328 4.37465-9.903779 4.37465-5.4744288 0-11.3619951-2.2591-11.3619951-13.95625v-13.72425c0-1.7255 1.4841273-2.90725 2.9826497-2.92465 1.5273124-.01595 3.0704594 1.1658 3.0704594 2.92465"/><path d="m132.940959 17.12015v1.74725c2.097356-3.0885 5.952344-4.78355 9.361087-4.78355 4.068034 0 8.160541 1.1339 9.995907 6.1277 1.891506-3.85845 6.119326-6.12335 9.975754-6.12335 4.995074 0 10.265094 2.2823 11.150388 11.07075.182817 1.4152.195773 9.68455.211607 11.7798 0 2.25475 1.07243 2.7579 2.208197 2.7579 1.078188 0 1.704372-.435 2.537844-.4089 1.868474-.02755 2.644366 2.5781 1.104098 3.944-1.12857.98455-3.395787 1.5689-5.855897 1.5689-3.865065 0-6.047351-2.17355-6.047351-7.48635v-9.99195c-.20153-4.8952-2.759527-7.6908-6.814606-7.6908-4.432229 0-6.911053 3.74535-7.46814 5.95515v18.6702h-5.972497v-17.0433c-.201531-4.78645-2.759527-7.58205-6.813167-7.58205-4.432229 0-6.853473 3.90775-7.573224 5.99575v18.6296h-6.051669v-27.13675c0-1.72405 1.484127-2.90725 2.98121-2.92465 1.528752-.01595 3.070459 1.16725 3.070459 2.92465"/><path d="m222.570159 35.8846c0 3.2886 1.628078 3.81205 3.051746 3.81205 1.078188 0 1.702932-.435 2.537843-.4089 2.031139-.0725 2.92507 2.48675 1.367528 3.87005-1.13001.98455-4.070914 1.64285-6.529585 1.64285-3.76286 0-6.246002-2.7927-6.246002-6.53515v-34.3563c0-3.34805 5.81847-3.34805 5.81847 0z"/><path d="m236.975263 26.76845h16.52981c.364195-6.0204-3.549813-7.82855-7.695581-7.82855-4.626562 0-8.052579 2.929-8.834229 7.82855zm21.494656 4.72555h-21.56951c.534056 5.13735 3.552693 8.49265 10.311158 8.49265 3.588681 0 6.934085-1.85455 8.608227-2.7579 2.22979-1.2035 4.527236 1.9343 2.51913 3.9585-2.306084 2.32435-7.226304 3.81495-11.998256 3.81495-9.073186 0-15.514961-5.24175-15.514961-15.3265s6.80597-15.7151 15.068715-15.7151c4.509963 0 8.10728 1.2006 10.499734 4.17455 2.239866 2.78545 3.535418 6.56125 2.075763 13.35885z"/></g></svg>