<svg height="37" viewBox="0 0 231 37" width="231" xmlns="http://www.w3.org/2000/svg"><path d="m30.8053591 32.2c-.5758011.575-1.2955525 1.15-2.3032044 1.725-.8637017.575-1.8713536 1.00625-3.0229558 1.4375s-2.3032044.71875-3.4548066 1.00625-2.4471547.2875-3.5987569.2875c-2.591105 0-4.8943094-.43125-7.1975139-1.4375-2.30320437-1.00625-4.17455796-2.15625-5.90196128-3.88125-1.58345304-1.58125-3.0229558-3.59375-3.88665746-5.75-1.00765193-2.3-1.43950276-4.6-1.43950276-7.1875s.43185083-4.8875 1.43950276-7.1875c1.00765194-2.3 2.30320442-4.16875 3.88665746-5.75s3.59875691-3.01875 5.90196128-3.88125c2.3032045-.8625 4.6064089-1.4375 7.1975139-1.4375 2.1592541 0 4.3185082.2875 6.3338121.8625s3.7427072 1.4375 5.18221 2.73125c1.1516022 1.00625 1.7274033 2.15625 1.7274033 3.45 0 .8625-.2879006 1.58125-.8637017 2.3-.8637016 1.15-2.0153039 1.725-3.4548066 1.725-1.0076519 0-1.8713536-.2875-2.7350553-.71875-.8637016-.575-1.8713536-.8625-2.8790055-1.29375-1.0076519-.2875-2.0153039-.43125-3.3108563-.43125-1.4395028 0-2.591105.2875-3.7427072.8625-1.007652.14375-1.8713536 1.00625-2.591105 1.86875s-1.2955525 1.86875-1.7274033 3.1625c-.43185084 1.15-.57580112 2.3-.57580112 3.7375 0 1.29375.14395028 2.5875.57580112 3.7375.4318508 1.15 1.0076519 2.3 1.7274033 3.1625s1.7274033 1.58125 2.7350553 2.15625c1.1516022.575 2.3032044.8625 3.7427071.8625 1.7274034 0 3.1669061-.2875 4.174558-.8625 1.1516023-.575 2.0153039-1.15 2.7350553-1.58125.8637017-.575 1.8713536-1.00625 3.0229558-1.00625s2.1592541.43125 2.8790055 1.4375c.5758011.8625 1.007652 1.725 1.007652 2.5875-.1439503 1.15-.7197514 2.3-1.5834531 3.30625zm36.5633702 2.875c-.8637017.8625-2.0153039 1.4375-3.4548066 1.4375-1.2955525 0-2.3032045-.575-3.3108564-1.4375-.8637017-1.00625-1.4395028-2.15625-1.4395028-3.45-.2879005.575-.7197513 1.15-1.4395027 1.725-.5758011.575-1.4395028 1.15-2.3032044 1.725-.8637017.575-1.8713536.8625-3.0229558 1.29375-1.1516023.2875-2.3032045.43125-3.4548067.43125-2.4471547 0-4.6064088-.43125-6.765663-1.4375-2.0153038-1.00625-3.8866574-2.3-5.4701105-3.88125-1.583453-1.58125-2.7350552-3.59375-3.5987569-5.89375-.8637016-2.3-1.2955525-4.6-1.2955525-7.1875s.4318509-4.8875 1.4395028-7.1875c1.2955525-2.15625 2.4471547-4.16875 4.174558-5.75s3.5987569-3.01875 5.9019613-3.88125c2.3032045-1.00625 4.6064089-1.4375 7.1975139-1.4375 2.5911049 0 4.8943094.43125 7.1975138 1.4375s4.174558 2.3 5.9019613 3.88125c1.7274033 1.725 2.8790055 3.59375 3.8866575 5.89375 1.0076519 2.3 1.4395027 4.6 1.4395027 7.1875v13.36875c-.1439503 1.15-.5758011 2.3-1.583453 3.1625zm-8.7809669-20.4125c-.4318508-1.15-.8637016-2.15625-1.7274033-3.1625-.7197514-.8625-1.7274033-1.58125-2.7350552-2.0125-1.1516022-.575-2.3032045-.71875-3.7427072-.71875-1.4395028 0-2.591105.2875-3.7427072.71875-1.1516022.575-2.0153039 1.15-2.7350552 2.0125-.7197514.8625-1.2955525 1.86875-1.7274034 3.1625-.4318508 1.15-.5758011 2.44375-.5758011 3.7375s.1439503 2.5875.5758011 3.7375c.2879006 1.15.8637017 2.15625 1.5834531 3.01875s1.583453 1.58125 2.591105 2.0125c1.0076519.575 2.3032044.71875 3.5987569.71875 1.4395027 0 2.5911049-.2875 3.7427071-.71875 1.1516022-.575 2.0153039-1.15 2.8790056-2.0125.7197513-.8625 1.4395027-1.86875 1.7274033-3.01875.4318508-1.15.5758011-2.44375.5758011-3.7375s0-2.5875-.2879006-3.7375zm37.1391713-7.1875c-.8637017.8625-1.8713536 1.29375-3.1669061 1.29375-1.4395027 0-2.8790055.14375-4.3185083.575-1.4395027.2875-2.5911049.8625-3.7427071 1.58125-1.1516023.71875-2.0153039 1.725-2.591105 2.875-.7197514 1.15-1.007652 2.5875-1.007652 4.16875v13.65625c0 1.29375-.4318508 2.44375-1.4395027 3.45-.8637017.8625-2.0153039 1.4375-3.4548066 1.4375-1.2955525 0-2.4471547-.43125-3.4548067-1.4375-1.0076519-1.00625-1.4395027-2.0125-1.4395027-3.45v-26.30625c0-1.29375.4318508-2.44375 1.4395027-3.45 1.007652-1.00625 2.1592542-1.4375 3.4548067-1.4375 1.2955524 0 2.4471547.43125 3.3108563 1.4375.8637017 1.00625 1.4395028 2.15625 1.4395028 3.45.8637016-1.00625 1.7274033-1.86875 2.5911049-2.5875.8637017-.71875 1.7274034-1.15 2.591105-1.58125.8637017-.43125 1.8713536-.71875 3.0229558-.8625s2.3032044-.2875 3.5987569-.2875c1.1516022 0 2.3032044.43125 3.1669061 1.29375s1.2955525 1.86875 1.2955525 3.1625-.4318508 2.15625-1.2955525 3.01875zm51.5341993-1.86875c0 .2875-.143951.575-.287901.8625l-10.36442 27.3125c-.2879.8625-.863702 1.4375-1.583453 2.0125-.719751.43125-1.583453.71875-2.447155.71875-.863701 0-1.727403-.2875-2.447154-.8625-.719752-.575-1.151602-1.15-1.583453-2.0125l-5.470111-15.38125-5.47011 15.38125c-.287901.8625-.863702 1.58125-1.583453 2.0125-.719752.575-1.583453.8625-2.447155.8625s-1.727403-.2875-2.447155-.71875c-.719751-.43125-1.295552-1.15-1.583453-2.0125l-10.3644197-27.3125c-.1439502-.2875-.1439502-.575-.2879005-.8625v-.8625c0-1.15.4318508-2.3 1.2955522-3.1625.863702-.8625 1.871354-1.29375 3.166906-1.29375.863702 0 1.727404.2875 2.447155.71875s1.151602 1.15 1.439503 2.0125l6.045911 16.81875 5.901962-16.53125c.2879-.8625.863701-1.58125 1.439502-2.0125.719752-.575 1.439503-.8625 2.447155-.8625s1.727404.2875 2.447155.8625 1.151602 1.15 1.439503 2.0125l5.901961 16.53125 6.045912-16.53125c.2879-.8625.863701-1.58125 1.583453-2.0125.719751-.575 1.583453-.71875 2.447154-.71875 1.151603 0 2.303205.43125 3.166906 1.29375.863702.8625 1.151603 1.86875 1.151603 3.1625.14395.14375 0 .2875 0 .575zm34.116215 19.98125c-1.007652 2.3-2.303204 4.16875-3.886657 5.89375-1.727404 1.725-3.598757 3.01875-5.901962 3.88125-2.303204.8625-4.606409 1.4375-7.197514 1.4375s-4.894309-.43125-7.197513-1.4375c-2.303205-1.00625-4.174558-2.3-5.901962-3.88125-1.727403-1.725-3.022955-3.59375-3.886657-5.89375-1.007652-2.3-1.439503-4.6-1.439503-7.1875s.431851-4.8875 1.439503-7.1875 2.303204-4.16875 3.886657-5.89375c1.727404-1.725 3.598757-3.01875 5.901962-3.88125 2.303204-.8625 4.606408-1.4375 7.197513-1.4375s4.89431.43125 7.197514 1.4375c2.303205 1.00625 4.174558 2.3 5.901962 3.88125 1.727403 1.58125 3.022955 3.59375 3.886657 5.89375 1.007652 2.3 1.439503 4.6 1.439503 7.1875s-.431851 4.8875-1.439503 7.1875zm-8.637017-10.925c-.43185-1.15-1.007651-2.15625-1.727403-3.1625-.719751-.8625-1.727403-1.58125-2.735055-2.0125-1.151602-.575-2.303204-.71875-3.742707-.71875s-2.591105.2875-3.742707.71875c-1.151603.575-2.015304 1.15-2.735056 2.0125-.719751.8625-1.295552 1.86875-1.727403 3.1625-.431851 1.15-.575801 2.44375-.575801 3.7375s.14395 2.5875.575801 3.7375.863702 2.15625 1.727403 3.01875c.719752.8625 1.727404 1.58125 2.735056 2.0125 1.151602.575 2.303204.71875 3.742707.71875s2.591105-.2875 3.742707-.71875c1.151602-.575 2.015304-1.15 2.735055-2.0125.719752-.8625 1.295553-1.86875 1.727403-3.01875.431851-1.15.575802-2.44375.575802-3.7375s-.287901-2.5875-.575802-3.7375zm57.580111-9.05625c0 .2875-.14395.575-.287901.8625l-10.364419 27.3125c-.287901.8625-.863702 1.4375-1.583453 2.0125-.719752.43125-1.583454.71875-2.447155.71875-.863702 0-1.727404-.2875-2.447155-.8625s-1.151602-1.15-1.583453-2.0125l-5.47011-15.38125-5.470111 15.38125c-.2879.8625-.863702 1.58125-1.583453 2.0125-.719751.575-1.583453.8625-2.447155.8625-.863701 0-1.727403-.2875-2.447154-.71875-.719752-.43125-1.295553-1.15-1.583453-2.0125l-10.508371-27.3125c-.14395-.2875-.14395-.575-.2879-.8625v-.8625c0-1.15.431851-2.3 1.295552-3.1625.863702-.8625 1.871354-1.29375 3.166906-1.29375.863702 0 1.727404.2875 2.447155.71875.719752.43125 1.151602 1.15 1.439503 2.0125l6.045912 16.675 5.901961-16.53125c.2879-.8625.863702-1.58125 1.439503-2.0125.719751-.575 1.439502-.8625 2.447154-.8625.863702 0 1.727404.2875 2.447155.8625s1.151602 1.15 1.439503 2.0125l6.045911 16.675 6.045912-16.53125c.287901-.8625.863702-1.58125 1.583453-2.0125.719751-.575 1.583453-.71875 2.447155-.71875 1.151602 0 2.303204.43125 3.166906 1.29375.863701.8625 1.151602 1.86875 1.151602 3.1625z" fill="#eee" opacity=".9" transform="translate(.060773)"/></svg>