<svg height="74" viewBox="0 0 112 74" width="112" xmlns="http://www.w3.org/2000/svg"><path d="m369.989802 52.5768727c.912924 0 1.929539-.4522272 2.450244-.8954098 1.625231-1.3838152 1.429121-2.5528225 1.541828-4.9473654l.651445-5.9467875c.453081-3.2718636 1.124813-3.3690925-.353899-4.8523976-.994074-.997161-1.553099-1.1056955-2.779348-1.1056955-1.963352 0-3.142264 2.4329822-3.746372 3.9253319-.608616 1.496872-1.109034 4.490616-1.109034 6.570861 0 2.6048286-.236684 7.2514629 3.345136 7.2514629zm-43.5882-45.01921604c0-5.38150347 6.298052-9.92638665 11.892814-6.19325126.773168.51553899 1.395309 1.18709635 1.994909 1.89483189 1.834865 2.16164593 2.835701 5.32949735 2.835701 8.94957591 0 4.5154884-2.021959 8.6058833-4.294126 12.0360265-1.359243 2.0508503-2.968695 3.8371476-4.686346 5.5782223-1.591419 1.6099288-3.717068 3.3329143-5.522629 4.6353286l-4.936555 3.2718637c-.450827.2713363-.843046.4838831-1.296127.7574805-1.710889 1.0333391-3.509688 1.8993542-5.301725 2.7992863-1.309652.6557294-5.748043 2.7540635-7.084745 3.0661003.103691.4409215.302054.6308569.504926 1.0084666l1.546337 2.778936c1.34121 2.4872495 2.797381 4.9337986 4.483473 7.1904122 1.109035 1.4855663 3.976294 4.2192796 4.835119.8592317.435048-1.7048965.387711-7.719518.191601-9.4718984l-.123977-3.5567668c1.523795-1.0242945 7.30565-4.6240229 8.953422-4.7619522v3.7874027c0 1.3385924.114961 2.2950529.108199 3.5725947-.011271 1.7478581.344882 5.0310274.730339 6.6251282.356154 1.4742606 1.253299 3.2085519 2.587747 1.5714895 2.463769-3.0208776.667224-17.2841229 1.084239-18.0619537.229921-.4318769 5.914849-6.1299394 7.880454-2.0237166.367424.7687862.556771 1.8857873.556771 3.0140941.500418-.7213023.890383-3.0909727 2.463769-5.1033837 1.724413-2.1978241 4.515032-4.1604901 7.262822-1.9490992 1.9904 1.5986231 3.110705 4.7054239 3.110705 7.486621 0 3.4369266-.579312 12.2644012-.031558 15.1835277.313325 1.6709794 1.550845 1.0559505 2.21356-.0090446 1.113543-1.7862973.831776-4.0225607.836284-6.1977735 0-.5539783.072133-.6625128.105945-1.0830841.031558-.4137879-.011271-.7190412.049591-1.1396125.477876-3.3306532.915178-6.2995246 2.400653-9.2797018.313325-.6263346.480131-.9587216.856571-1.5240056.930958-1.3951208 2.019705-2.5256888 3.473621-3.4414488 5.265659-3.3170864 10.057949 2.3583647 10.269837 3.161068h.216397c.320087-1.3725095 1.541828-3.2289021 2.418687-4.3933871 1.113542-1.4833052 2.977711-3.2899528 5.349061-3.2899528 1.710888 0 3.381202.714519 4.343717 1.813431 2.457007 2.8038086 2.003926 6.937165-.998582 9.1169-1.415596 1.0288169-3.956006 1.5534004-5.61054.7574806-.189348.8185312-.493656 1.5782728-.69202 2.4442879-.482384 2.1277289-.924195 4.4680045-1.032393 6.6477396-.029304.6014621-.099182.8999321-.112707 1.4019042l-.473368 11.7533845c-.074387.4974499-.051845.9994221-.123978 1.4991331-.473368 3.2989973-.755135 6.8987257-2.833447 9.4945097l-1.51027 1.5149611c-4.796798 3.8665424-13.549603.648946-18.889647-.4567495-11.05653-2.2905307-23.902843-3.6313843-34.988677-.7733085-.511688.1334071-1.219486.416049-1.701871.4567495.678494-1.2865863 2.964187-2.5166443 4.45417-3.1090619 1.850644-.7348692 3.633665-1.3340702 5.76833-1.7885585 8.890307-1.897093 16.099029-1.863176 25.038926-.6037233 5.175493.7258246 12.882379 3.0932339 15.950256-2.1096398.660462-1.1170011 1.050427-2.1164232 1.415597-3.4504934.284021-1.0401225.752881-3.061578.777676-4.0903949-.259225.1899355-.446318.5562395-.678494.8343592-2.608034 3.0977562-7.882709 5.356631-10.8221 1.2865863-.770914-1.0695173-1.656789-3.2537745-1.769496-4.6104561-.096928.1107957-.009016-.0158279-.137502.1876743l-.223159.4250935c-.126232.2555084-.189348.4002211-.322342.6512072-.220905.4092656-.448572.7665251-.698781 1.1396125-1.53732 2.3040975-3.660715 4.5222718-6.710559 4.5222718-4.129574 0-3.775675-4.1717958-3.775675-7.2514629l.108198-4.5448832c-.004508-.8886264.112707-1.3205033.108199-2.1616459-.009017-1.6687183.151027-2.9394767.009016-4.4499155-.489147-5.1983514-3.91994-2.4352433-4.496998 1.1373514-.315579 1.9513603-.259225 4.3459032-.259225 6.5572942 0 2.7043185-.139757 7.852925.029303 10.3876583.022542.3549984.162298.3278647-.241192.431877-1.203708.3097756-2.517868.2193302-3.780184.2193302-3.333865 0-4.255806-2.7653692-4.316667-5.5194328-.015779.0203502-.031558.0542673-.038321.0678341-.009016.0158279-.029303.0520061-.040574.0700952l-.529722 1.198402c-.227667.4748386-.410252.8253146-.64919 1.297892-2.842464 5.6234451-8.502596 7.6901233-10.779272 1.4312991-.151027-.4205713-.078894-.4974499-.369678-.7099967-.058607.698691-.70329 2.3696704-.971532 2.9213876-.227667.4680551-.347137.8592317-.626649 1.3205034-.475623.7846141-.942228 1.6415846-1.557607 2.3312311-1.208216 1.3521593-2.220323 2.2995752-4.179166 2.2995752-2.553934 0-5.175492-3.2967361-6.282273-4.9541488-1.530557-2.297314-2.768077-4.6511565-4.003342-7.1293615-2.186511-4.3866037-4.086746-9.0739384-5.914849-13.6572609-.22316-.5607617-.595092-1.347637-.739357-1.962666.28853-.1401904 1.223995-.2916865 1.661298-.3911765 6.512194-1.481044 13.434641-3.8258419 19.412606-6.8241082 1.821341-.9134989 3.552516-1.7433358 5.297216-2.8038085 4.079984-2.4759438 9.534989-6.1683788 11.820682-10.4351422.746118-1.3905986 1.366005-2.7020574 1.51027-4.4386098-2.610288 1.3860763-5.452752 1.3928597-7.963857-.1266236-2.263151-1.3679873-3.795963-3.7376577-3.795963-7.01404364zm-46.498287 24.99911864c0-3.2763859 2.822176-6.2769133 6.04108-6.2769133 2.808652 0 4.31216 1.2594527 6.124484 3.0547946 1.397563 1.3860763 2.542664 3.4165764 3.277512 5.2616633 2.72074 6.8354139 4.10027 19.34854 6.4333 27.7441376.304308 1.0921287.669478 2.2317412 1.070713 3.2560358 2.601272 6.6364339 4.954588 6.7246182 5.211559 7.4346148-.417014.2012411-2.91685.431877-3.669731.431877-2.468277 0-4.242281-.0610507-6.399487-1.2617138-2.761315-1.5375725-4.021376-4.4205208-4.776512-7.4368761-.394473-1.5760117-1.063951-6.2203849-1.122559-8.0745163-.029303-.9587216-.202872-1.8654371-.214142-2.8151142-.047337-3.3894427-1.350227-12.3231907-2.806398-15.3666797-3.719322 1.9739717-9.169819-.7529582-9.169819-5.9513097z" fill="#eee" fill-rule="evenodd" opacity=".9" transform="translate(-279)"/></svg>