<svg height="42" viewBox="0 0 306 42" width="306" xmlns="http://www.w3.org/2000/svg"><path d="m732.199734 346.507643h-5.932161v-21.146699h5.932161c4.279188 0 7.308894.636689 9.382624 1.884289 2.795028 1.687741 4.50811 5.027134 4.50811 8.644273 0 6.807027-4.98322 10.618137-13.890734 10.618137zm16.683844-21.822697c-3.857152-3.327794-8.488036-4.684946-15.909472-4.684946h-14.539774v31.869232h14.485421c7.058869 0 12.221774-1.540168 15.843609-4.679146 3.439592-2.995917 5.395664-7.100239 5.395664-11.349556 0-4.152653-1.898522-8.215088-5.275448-11.155584zm13.418821 27.184286h7.478347v-31.869232h-7.478347zm83.15193-31.869232v23.342244s-.916969-1.716095-1.488635-2.380494l-16.441493-20.96175h-8.602497v31.860854h7.124092v-23.041298c.179685.531003.689326 1.303665 1.833298 2.717526l16.805979 20.625362h7.820452v-32.162444zm-145.58254 31.869232h7.478987v-31.869232h-7.478987zm89.732492-13.039229 4.510668-11.540949 4.563742 11.540949zm1.126068-18.830003-14.185519 31.869232h7.828764l3.206833-7.865167h13.121478l3.08278 7.865167h7.830683l-14.180404-31.869232zm-153.743178 18.205558h13.411148v-5.174706h-13.411148v-7.86259h16.374991v-5.168262h-23.857175v31.869232h24.632825v-5.15924h-17.150641zm38.711557-4.244161h-4.870038v-8.793135h4.870038c4.863004 0 6.820994 1.214735 6.820994 4.251895 0 3.185376-2.075649 4.54124-6.820994 4.54124zm12.405296 1.301087c1.421493-1.544034 2.13192-3.523698 2.13192-5.992477 0-2.993984-1.0666-5.307458-3.203636-6.899824-2.318-1.783759-4.924391-2.370183-10.621874-2.370183h-13.062649v31.869232h7.480905v-12.747306h3.738214l8.965065 12.747306h8.186855l-9.728565-13.663674c3.25607-.723685 4.62385-1.402262 6.113765-2.943074zm-95.327025 4.327292-.015986-19.560777h-7.50968l-38.240283 41.571001h9.017499l29.232376-32.453078v22.72231h5.441704l20.622845-22.698466v22.698466h7.505844v-31.840233h-7.966886z" fill="#eee" fill-rule="evenodd" opacity=".9" transform="translate(-547 -320)"/></svg>