<svg height="69" viewBox="0 0 229 69" width="229" xmlns="http://www.w3.org/2000/svg"><path d="m0 0h228.385345v68.6566667h-228.385345v-9.4122223h6.32938601c1.53439661 0 2.78109385-1.2422222 2.78109385-2.7711111s-1.24669724-2.7711111-2.78109385-2.7711111h-6.32938601v-5.5422222h6.32938601c1.53439661 0 2.78109385-1.2422222 2.78109385-2.7711111s-1.24669724-2.7711111-2.78109385-2.7711111h-6.32938601v-5.5422222h6.32938601c1.53439661 0 2.78109385-1.2422223 2.78109385-2.7711112 0-1.5288888-1.24669724-2.7711111-2.78109385-2.7711111h-6.32938601v-5.4944444h6.32938601c1.53439661 0 2.78109385-1.2422222 2.78109385-2.7711111s-1.24669724-2.7711111-2.78109385-2.7711111h-6.32938601v-5.5422223h6.32938601c1.53439661 0 2.78109385-1.2422222 2.78109385-2.7711111s-1.24669724-2.77111108-2.78109385-2.77111108h-6.32938601zm201.821104 17.2955556c0 2.1022222 1.726196 3.87 3.883941 3.87 2.157746 0 3.883942-1.72 3.883942-3.87s-1.726196-3.87-3.883942-3.87c-2.157745 0-3.883941 1.72-3.883941 3.87zm7.192484 0c0 1.8155555-1.486447 3.2966666-3.308543 3.2966666s-3.308542-1.4811111-3.308542-3.2966666c0-1.8155556 1.486446-3.2966667 3.308542-3.2966667s3.308543 1.4333333 3.308543 3.2966667zm-2.397495-.1911112c.14385-.1911111.23975-.43.23975-.7166666 0-.3344445-.14385-.6211111-.383599-.86-.23975-.1911111-.575399-.2866667-1.102848-.2866667h-.671298v3.8222222h.575398v-1.5766666h.0959l1.102848 1.5766666h.719248l-1.198747-1.6244444c.287699 0 .479499-.1433333.623348-.3344445zm-1.294647-.0477777v-1.1944445h.1918c.527449 0 .815148.1911111.815148.5733334 0 .43-.287699.6211111-.815148.6211111zm-151.1860157 26.4688889c0-7.31-6.3773359-10.6066667-11.8915737-12.8044445-4.6031898-1.8633333-6.7129851-3.6788889-6.7129851-6.3544444 0-1.8155556 1.774146-3.9655556 4.9867889-3.9655556 3.1167432 0 7.4322336 2.8188889 7.9117326 3.1055556.6712985.43 1.5343966 0 2.0138955-.6688889l2.1577452-3.2488889c.3835992-.5733333.2397495-1.5288889-.3356492-1.8633333-1.1507975-.86-5.5621877-3.7744445-11.3641249-3.7744445-9.06253 0-12.8026217 5.8288889-12.8026217 10.8933333 0 6.6888889 5.3224382 10.0811112 10.6928264 12.2311112 4.7949894 1.9111111 7.240434 3.9177777 7.240434 6.7844444 0 2.4366667-2.2056952 4.3477778-5.1785886 4.3477778-3.6921418 0-8.2953317-3.3444445-8.583031-3.5355556-.5274489-.3822222-1.4864467-.3822222-1.9179958.3822222l-2.0618454 3.5355556c-.5274489.9077778-.2397495 1.1944444.2876993 1.72 1.1507975 1.0988889 5.3224383 4.4433333 12.5149224 4.4433333 7.9596824-.0477777 13.0423711-5.3988889 13.0423711-11.2277777zm17.8853105 9.5555555v-37.5055555c0-.5733334-.5274488-1.0988889-1.1028475-1.0988889h-5.2744884c-.5753987 0-1.1028475.5255555-1.1028475 1.0988889v37.5055555c0 .5733333.5274488 1.0988889 1.1028475 1.0988889h5.2744884c.6233486 0 1.1028475-.5255556 1.1028475-1.0988889zm93.3584432-9.8422222c0-5.2077778-4.36344-8.2655556-7.384283-9.2211111 2.685194-1.2422222 6.233486-4.6344445 6.233486-9.03 0-5.9722222-5.226538-10.4633334-11.987473-10.4633334h-13.042372c-.623348 0-1.102847.5255556-1.102847 1.0988889v37.5055556c0 .5733333.431549 1.0988889 1.102847 1.0988889h13.76162c6.952735-.0477778 12.419022-4.6822222 12.419022-10.9888889zm-19.899206-22.0255556h6.089637c2.876994 0 4.890889 2.0066667 4.890889 4.8255556s-2.013895 5.1122222-4.890889 5.1122222h-6.089637zm0 26.2777778v-10.1288889h6.185537c2.972893 0 5.801937 2.1022222 5.801937 4.9211111 0 2.9622223-2.253645 5.16-5.130639 5.16h-6.856835zm63.965159 5.2077778-17.309912-37.6966667c-.287699-.5255555-.815148-.86-1.438496-.86-.623349 0-1.198748.3822222-1.486447.9077778l-17.453762 37.6488889c-.335649.7166667.0959 1.4811111.958998 1.4811111h4.938839c.911048 0 1.438497-.5733333 1.630297-1.1466667l2.781094-6.1155555h17.022212l2.781094 6.1155555c.383599.8122223.815148 1.1466667 1.630296 1.1466667h4.938839c.911048 0 1.342597-.7644444 1.006948-1.4811111zm-24.550346-12.0877778 5.562188-12.47h.1918l5.658087 12.47zm-57.587822 12.2311111-6.569136-37.3144444v-.0477778c-.0959-.86-.815148-1.4811111-1.726196-1.4811111-.719248 0-1.342597.43-1.582347 1.0511111l-12.227223 26.1344444c-.047949 0-.047949 0-.191799 0l-12.275173-26.1822222c-.2397494-.6211111-.8630981-1.0511111-1.5823465-1.0511111-.8630981 0-1.5823465.6688889-1.6782463 1.5288889l-6.6170853 37.3144444c-.0958998.8122223.3356492 1.29 1.1028475 1.29h5.1306387c.5274488 0 .9589979-.43 1.0069478-.86l3.3085427-21.5h.1917995l9.5420289 21.1655556c.335649.7644444 1.102848 1.3377778 1.965946 1.3377778s1.630296-.5255556 1.965945-1.29l9.494079-21.2133334h.1918l3.356493 21.5c.095899.3822223.575398.86 1.102847.86h5.178589c.623348.0955556 1.102847-.43.911048-1.2422222z" fill="#eee" fill-rule="evenodd" opacity=".9" transform="translate(.281768 .2)"/></svg>