<svg height="83" viewBox="0 0 188 83" width="188" xmlns="http://www.w3.org/2000/svg"><path d="m93.5676796 75.703789c19.3889014 0 35.1070544-15.5969576 35.1070544-34.8362923s-15.718153-34.83623679-35.1070544-34.83623679c-19.3889018 0-35.1070546 15.59690209-35.1070546 34.83623679s15.7181528 34.8362923 35.1070546 34.8362923zm93.5676794-56.7739392-5.97256 5.9383756h-49.891214c.916077 2.1403951 1.641583 4.3780076 2.180996 6.6863945h40.985448l-5.97256 5.9383755h-34.08539c.088176 1.0920576.14584 2.1927814.14584 3.3070046 0 1.1390553-.059288 2.2641112-.15183 3.3793899h27.366609l-5.973063 5.9383756h-22.331906c-.543779 2.3094423-1.276395 4.5464993-2.196784 6.6863944h17.804423l-5.973064 5.9383756h-15.005187c-7.304436 11.3355554-20.091006 18.8574645-34.656378 18.8574645-14.564812 0-27.3513819-7.5219091-34.6558739-18.8574645h-14.6878104l-5.9730638-5.9383756h17.4871015c-.9203885-2.1398951-1.6530043-4.3769521-2.1972876-6.6863944h-22.0140804l-5.9730638-5.9383756h27.0487286c-.0919828-1.1152787-.1512706-2.2403346-.1512706-3.3793899 0-1.1142232.0576642-2.214947.1458401-3.3070046h-33.7680685l-5.9725599-5.9383755h40.6675671c.5394126-2.3083869 1.2654782-4.5459994 2.180996-6.6863945h-49.57333347l-5.97255993-5.9383756h58.705558c7.2968221-11.37605342 20.1073535-18.9298498 34.703181-18.9298498 14.596387 0 27.406919 7.55379638 34.703237 18.9298498zm-111.6188827 27.0016764 4.7256126-14.3055765h5.41624v18.3773769h-3.9444582v-13.6272209l-4.1747791 13.6272209h-4.0882269l-4.1599992-13.6272209v13.6272209h-3.945074v-18.3773769h5.4026917zm34.3671607-.8460696.046803-13.4597847h3.664759v18.377377l-4.413666.1091057-7.419877-12.9898632v12.8807575h-3.6647021v-18.377377h4.3636151zm-19.9219321 4.9032041v-18.3773381h3.756185v18.3773381zm27.9120691 0v-18.3773381h3.756185v18.3773381z" fill="#eee" fill-rule="evenodd" opacity=".9" transform="translate(0 .6)"/></svg>