<svg height="51" viewBox="0 0 217 51" width="217" xmlns="http://www.w3.org/2000/svg"><path d="m14.9548343 38.8668852v-4.3095082h4.2385359v-12.9285245h-4.2385359v-4.3908197h8.4770718v17.2380328h4.3185083v4.3095082h-12.7955801zm27.5904696 10.7331148h-42.38535915v-43.09508197h27.59046965v4.30950817h-23.35193374v34.4760656h33.90828734v-23.7429508h4.2385359zm0-32.3619672v.0813115h-4.2385359v-6.5049181h-6.3977901v-4.30950817h6.3977901v-6.50491803h4.2385359v6.50491803h6.39779v4.22819677h-6.39779zm44.9444751 7.5619672c.3198895.9757377.4798343 2.0327869.4798343 3.252459s-.1599448 2.2767213-.4798343 3.252459-.7997238 1.7888525-1.3595304 2.4393443-1.279558 1.1383607-2.1592541 1.544918c-.8796962.3252459-1.7593923.5691804-2.8790055.5691804-1.0396409 0-1.9993094-.162623-2.8790056-.5691804-.8796961-.3252459-1.5994475-.8944262-2.1592541-1.544918s-1.0396409-1.4636066-1.3595304-2.4393443-.4798343-2.0327869-.4798343-3.252459.1599448-2.2767213.4798343-3.252459.7997238-1.7888525 1.3595304-2.4393443 1.279558-1.2196721 2.1592541-1.544918c.8796962-.3252459 1.8393647-.5691803 2.8790056-.5691803 1.0396408 0 1.9993093.1626229 2.8790055.5691803.8796961.3252459 1.5994475.8944262 2.1592541 1.544918s1.0396409 1.4636066 1.3595304 2.4393443zm54.621133-5.4478689c1.759392 0 3.03895.4065574 3.838674 1.1383607.879696.8131148 1.279558 1.9514754 1.279558 3.3337705 0 .6504918-.079973 1.3009836-.31989 1.8701639-.159945.5691804-.559806 1.0570492-.959668 1.4636066s-.959669.7318033-1.599448.9757377-1.35953.3252459-2.239226.3252459h-3.518785v-9.1068853zm74.694198 30.2478689h-159.4649166v-43.09508197h159.4649166zm-124.6769332-21.547541c0-1.6262295-.2399171-3.089836-.7997238-4.4721311-.5598066-1.3822951-1.279558-2.6019672-2.2392265-3.5777049-.9596685-.9757378-2.0792817-1.7888525-3.4388121-2.3580328-1.3595304-.5691804-2.8790056-.8944263-4.4784531-.8944263s-3.1189226.3252459-4.478453.8131148c-1.3595304.5691803-2.4791437 1.3822951-3.5187845 2.3580328-.9596686.9757377-1.6794199 2.1954098-2.2392266 3.5777049-.5598066 1.3822951-.7997237 2.8459016-.7997237 4.4721311s.2399171 3.0898361.7997237 4.4721312c.5598067 1.3822951 1.279558 2.6019672 2.2392266 3.5777049.9596685.9757377 2.1592541 1.7888525 3.5187845 2.3580328s2.8790055.8131147 4.478453.8131147 3.1189227-.2439344 4.4784531-.8131147 2.4791436-1.3822951 3.4388121-2.3580328 1.6794199-2.1954098 2.2392265-3.5777049c.4798343-1.3009836.7997238-2.7645902.7997238-4.3908197zm21.4325962-11.0583606h-3.518784v13.4163934.9757377c0 .3252459.079972.6504918.079972 1.0570492l-11.356077-14.7173771c-.0799724-.1626229-.2399171-.2439344-.3198895-.3252459-.0799724-.0813114-.1599448-.1626229-.2399172-.1626229-.0799723-.0813115-.1599447-.0813115-.3198895-.0813115-.0799723 0-.2399171 0-.4798342 0h-2.0792818v22.0354098h3.5187846v-13.6603278c0-.2439344 0-.5691803 0-.8944263 0-.3252459-.0799724-.6504918-.0799724-.9757377l11.356077 14.7173771c.159945.2439344.399862.4878688.639779.5691803s.479835.162623.799724.162623h2.079282v-22.1167213zm18.073757 0h-13.675276v22.0354098h13.675276v-3.252459h-9.596685v-6.2609836h7.597376v-3.1711476h-7.597376v-6.0170491h9.596685zm18.633564 6.8301639c0-1.0570492-.159945-1.9514754-.479834-2.8459016-.31989-.8131148-.799724-1.5449181-1.519475-2.1954099-.639779-.5691803-1.519476-1.0570492-2.559116-1.3822951-1.039641-.3252459-2.239227-.4878688-3.598757-.4878688h-6.39779v22.1167213h2.958977v-8.212459h3.518785c1.279558 0 2.479144-.162623 3.438812-.4878689 1.039641-.3252459 1.839365-.8131147 2.559116-1.4636065.719752-.6504918 1.199586-1.3822951 1.519475-2.1954099.31989-.8944262.559807-1.7888524.559807-2.8459016zm16.074447 12.7659016h-9.43674v-19.5960655h-2.958978v22.1167213h12.395718zm20.312984-19.5960655h-2.958978v13.4163934c0 .8944262-.159945 1.7888525-.399862 2.5206557-.239917.7318033-.639779 1.4636066-1.119613 2.0327869-.479834.5691804-1.119613.9757377-1.759392 1.3009836-.719752.3252459-1.519476.4878689-2.399172.4878689s-1.67942-.162623-2.399171-.4878689-1.35953-.7318032-1.839365-1.3009836c-.479834-.5691803-.879696-1.2196721-1.119613-1.9514754s-.399862-1.6262295-.399862-2.5206557v-13.4977049h-2.958978v13.4163934c0 1.3009836.159945 2.4393443.559807 3.5777049.399862 1.0570492.959668 2.0327869 1.759392 2.8459017.719752.8131147 1.67942 1.4636065 2.719061 1.8701639 1.039641.4878688 2.239227.6504918 3.598757.6504918s2.559116-.2439344 3.598757-.6504918c1.039641-.4878689 1.999309-1.0570492 2.719061-1.8701639.719751-.8131148 1.279558-1.707541 1.679419-2.8459017.399862-1.0570492.559807-2.2767213.559807-3.5777049v-13.4163934zm17.433978 15.3678688c0-.8944262-.159945-1.707541-.479834-2.2767213-.31989-.6504918-.719752-1.1383607-1.199586-1.6262295-.479834-.4065574-1.039641-.8131148-1.67942-1.0570492-.639779-.3252459-1.279558-.5691803-1.919337-.7318033-.639779-.2439344-1.279558-.4065573-1.919337-.6504918-.639779-.2439344-1.199586-.4878688-1.67942-.7318032-.479834-.3252459-.879696-.6504919-1.199586-1.0570492-.319889-.4065574-.479834-.8944263-.479834-1.5449181 0-.4878688.079973-.8944262.239917-1.382295.159945-.4065574.399862-.8131148.799724-1.0570492.31989-.3252459.799724-.5691804 1.279558-.7318033.479834-.162623 1.119613-.2439344 1.759392-.2439344.719752 0 1.279558.0813114 1.759393.2439344.479834.1626229.879696.4065574 1.279558.5691803.319889.2439345.639779.4065574.879696.5691804.239917.1626229.399862.2439344.559806.2439344.159945 0 .31989 0 .399862-.0813115.079973-.0813115.239917-.1626229.31989-.3252459l.719751-1.3822951c-.719751-.7318033-1.599447-1.3009836-2.639088-1.707541-.959669-.4065573-2.079282-.5691803-3.35884-.5691803-1.119613 0-2.079282.162623-2.879006.4878689-.799723.3252459-1.519475.8131147-2.079281 1.382295-.559807.5691804-1.039641 1.2196722-1.279558 1.9514755-.31989.7318032-.479835 1.4636065-.479835 2.2767213 0 .9757377.159945 1.7888524.479835 2.4393442.319889.6504918.719751 1.2196722 1.199585 1.6262295.479835.4065574 1.039641.8131148 1.67942 1.0570492s1.279558.4878689 1.919337.7318033 1.279558.4065574 1.919337.6504918c.639779.1626229 1.199586.4065574 1.67942.7318033s.879696.6504918 1.199586 1.0570492c.319889.4065573.479834.9757377.479834 1.6262295 0 .5691803-.079972 1.1383606-.31989 1.6262295-.239917.4878688-.479834.8944262-.879696 1.3009836-.399862.3252459-.879696.6504918-1.35953.8131147-.559807.162623-1.199586.3252459-1.839365.3252459-.879696 0-1.519475-.0813114-2.159254-.3252459-.559806-.2439344-1.039641-.4878688-1.519475-.7318032-.399862-.2439345-.719751-.5691804-1.039641-.7318033-.239917-.2439344-.479834-.3252459-.719751-.3252459-.159945 0-.239917 0-.399862.0813115-.079972.0813114-.239917.1626229-.31989.2439344l-.879696 1.3822951c.799724.8944262 1.839365 1.6262295 2.958978 2.1140983 1.199586.4878689 2.399171.8131148 3.838674.8131148 1.119613 0 2.159254-.162623 3.118923-.5691804.879696-.3252459 1.67942-.8944262 2.319199-1.4636065.639779-.6504918 1.119613-1.3822951 1.439503-2.1954098.319889-.9757378.479834-1.870164.479834-2.8459017z" fill="#eee" opacity=".9" transform="translate(0 .8)"/></svg>