<svg height="93" viewBox="0 0 204 93" width="204" xmlns="http://www.w3.org/2000/svg"><path d="m135.684546 71.8907163.009763-5.7187044c-.162527-.6414122-.444508-1.2796475-.862025-1.8687879-.199569-.2815744-.424695-.5440884-.696339-.8051584-.271644-.2610701-.590381-.5201185-.928644-.7494212-.33855-.2293027-.697488-.4285707-1.070497-.5949162-2.16741-.9339607-4.451116-.7560635-6.390529.1620136-.806606.3875619-1.547453.9140339-2.181481 1.5479373-.564538.5368686-1.045802 1.1629746-1.417948 1.848861-.372434.6858865-.636038 1.4312645-.778465 2.1994573-.288873 1.5479374-.072362 3.1608534.605026 4.5808549.339124.7153435.792247 1.388523 1.331229 1.982284.538693.5943386 1.163533 1.1098364 1.848386 1.524545.684566.4147086 1.429721.7289168 2.203591.930784 1.570425.4256828 3.094906.2359449 4.545877-.3482859 1.008759-.4343466 2.165687-.9423357 2.955638-2.0293574.277387-.3820749.491888-.8106456.632018-1.2623198.140129-.4516743.205599-.9264521.1944-1.3997859zm4.833601-12.8319965v17.1503374l.862026 2.5393681-4.795985.0158837-1.486003-1.3619538c-1.589376.4918166-3.189665.8715811-4.801153 1.1465133-2.693182.4484975-5.399574.1588368-7.955786-.8701372-.730223-.3133418-1.423117-.7144771-2.058293-1.193298-.635177-.4785321-1.212636-1.0347499-1.715723-1.6519033-.5028-.617731-.931516-1.2963975-1.273799-2.0163617-.572865-1.1612418-.77186-2.3311474-.733669-3.4502253.100216-1.8364428.559656-3.8155501 2.067482-5.5555356.282269-.3185401.591243-.6133991.922901-.8790898.738264-.567192 1.533957-1.0590087 2.370426-1.465631.836756-.4063336 1.714575-.7268952 2.615365-.9553315 1.312277-.3370229 2.70352-.4591829 4.004311-.4265492 1.28069.0294571 2.555638.3318247 3.982775.6945503.500503.1264919 1.000718.2538502 1.500073.3849628.579182.1262031 1.156354.3191177 1.725486.5894291v-2.6950283l-.69634-1.9251027h6.092468zm46.378507 19.5603257h-8.62858l.964825-2.6941619-.008614-12.540603-.916871-2.9483008 6.070357-.001444 2.08184 1.2192895 3.974447-1.3888117c.858867-.3702343 1.721466-.2795529 2.456858.1594144l.011199 3.5290662c-1.008759-.0447632-2.022974.0147285-3.020821.178186-.833598.1617248-1.718595.2630916-2.458868.7710808-.299211.2012896-.565399.4516742-.786218.7378694-.220531.2861951-.395119.6079119-.514286.9495556-.119454.3413548-.190381.7023477-.190093 1.0642069l.006891 8.2624045zm-105.5280224-22.1805562.005743 19.4783081 1.0529801 2.7094679-7.2821315.0034656-.0097632-19.6850848-.6340278-2.515687zm20.1145914 16.4052481 7.161815-11.9858292h4.475525l-11.626141 22.0257625-4.4852879.0011552 1.8900232-4.0711331c.0783921-.1692334.124049-.3540618.1326635-.5403341.0175161-.3586825-.1065328-.738447-.3681267-1.0269524-.1249104-.1383325-.2771001-.2512511-.445083-.3309583-.1676958-.0794184-.3514719-.1253367-.5366839-.1348669l-.8818386.0025991c-.2153627.0069311-.4310126-.0620907-.596124-.3113202l-10.8307349-15.6283915 7.1216145.0144397zm3.600577-20.5104588c.217373.6310155.321896 1.3007294.309836 1.968133h-11.2703624c-.026705-1.2860009.3977031-2.6317823 1.2778188-3.7063858.4212495-.5160754.9340999-.9567755 1.5069648-1.294376.5728648-.3376005 1.2057441-.5723903 1.8595853-.6896408 1.3076825-.2379665 2.6960545.011263 3.8409225.6896408.572865.3376005 1.085715.7783006 1.507252 1.294376.421249.5157866.750898 1.107526.967983 1.7382528zm95.482356 38.1754276.058005-88.16138626-198.62990217-.0557373.23345319 88.26419696zm-200.566156-90.5087062h203.129834v92.8l-203.06350228-.0358105zm16.4226999 66.3603057c-.0465184 1.4728509-.0697775 3.8348993.0037329 5.2156248.0732234 1.3807255.2435035 1.7804168.435607 2.1653795.3661167.7280504.7971293 1.4104713 1.5118464 2.0960689.3356787.3222945.7287874.6422785 1.1465911.9252969.4180909.2830184.8608766.5287824 1.3206042.7424901.4591534.2131302.9352486.3942042 1.7280705.5360022.7925349.141798 1.9017965.2448976 2.9952648.1429532 1.0934683-.1016556 2.1711434-.4083551 3.1626734-.8906416.9918171-.4819976 1.8969149-1.139871 2.6463772-1.8552145.7494622-.7150546 1.3430019-1.4878681 1.8024424-2.3346129.4594405-.8464561.7847817-1.7671323.9605177-2.7155327.3566407-1.9109518.0893038-3.9021884-.7468779-5.6551697-.4189523-.8834217-.9783211-1.7142828-1.6433612-2.4478203-.6653272-.7335375-1.4366129-1.3697513-2.2845677-1.8702318-.8479549-.5004805-1.772866-.8652277-2.4763842-1.0858665-.7038054-.22035-1.1862179-.2963029-1.6709276-.3344238-.4847097-.0381208-.9714295-.037832-1.4541291.0060647-1.3674097.1311126-2.6277124.564304-3.9732987 1.2533672-.7945449.4017128-1.6916024.9954739-2.4011508 1.9406976-.345729.4666915-.6107687.9954739-.7781773 1.5519805-.1676958.5565065-.2380476 1.1404486-.2848531 2.6135882zm-5.9279308 14.9575224v-21.1732417l-1.06446614-3.134862 5.92103914-.019638 1.8348904 1.6816491c.9754496-.2890831 1.950612-.5781662 2.938409-.8141111 2.0939-.4629372 4.1944045-.9105684 6.3098407-.8504991 2.1791836.0360992 4.4703559.4776657 6.4396326 1.3021734.9636764.4063335 1.8185229.9024821 2.6024432 1.4939328.7839203.5911619 1.4969145 1.2776259 2.1094061 2.0440859.6122044.7658825 1.1239062 1.6114722 1.4670508 2.264436.3431447.6526751.517732 1.1127244.6558513 1.5831703.4376171 1.4610103.4491031 2.9272189.2251259 4.3287375-.2931805 1.7934125-.9341 3.7459507-2.4106268 5.4307765-.3451547.3976698-.7210344.7690592-1.3958376 1.2643414-.6748032.4949934-1.6485299 1.113302-2.6771022 1.6207135-1.0285724.5071228-2.1122776.9030597-3.2246979 1.17366-1.1127074.2700226-2.2538427.4149974-3.0825585.4880623-.8287157.073065-1.3452991.074509-1.8604467.0537158-.5148605-.021082-1.0288596-.0638236-1.5388385-.133423-1.064179-.1441083-2.193254-.4303035-3.3783233-.7277616-.6182345-.1559489-1.2356077-.3136306-1.8524065-.4747778-.7150043-.1562377-1.427137-.394493-2.1300809-.7283392v3.327199l.8594408 2.3764881h-7.52161493zm38.6484202-13.6273359c-.447093 1.4673638-.4588662 3.0802798-.0522614 4.4520527.143288.502502.3351044.9917195.6949038 1.6094505.3597993.617731.8872944 1.3636866 1.5348183 1.9883487.6472368.624662 1.4145024 1.1274528 2.2443667 1.4708293.8295773.3430876 1.7217532.5264719 2.3865062.6009809.6647529.0745089 1.1020828.0401424 1.5345312-.0181941.4327355-.0580476.8605894-.1394876 1.283849-.2454751.4232595-.1056987.8419246-.235945 1.4053135-.5293599.5633889-.293415 1.2720759-.7494212 1.8834188-1.3145916.6110559-.5651704 1.1253421-1.2395051 1.5193123-1.9785297.393683-.7390245.6676244-1.542739.810051-2.3816864.2934676-1.698688.0175161-3.5065402-.7821975-5.0100033-.4014361-.7612617-.9318027-1.4523464-1.4814083-1.9944133-.5496057-.5420669-1.1184505-.9351159-1.7272091-1.2473025-.6084715-.3124754-1.2565697-.544666-1.9230455-.6763562-.6664759-.1314014-1.350755-.1623024-1.8704971-.1582593-.519742.0037543-.8746598.0427416-1.2267061.0976125-.3523334.0548709-.7015081.1256255-1.0463757.2142853-1.0458013.2717555-2.2854292.7606842-3.1847839 1.6490154-.3081123.2954366-.5837766.6249508-.8353202.9908532-.2518309.3664799-.4792539.769348-.6750904 1.1875221-.1961236.4178853-.3603736.8504992-.4921756 1.2932208zm-4.2027318 6.7782906c-.4904527-.7092787-.8608766-1.5043294-1.0951912-2.3380785-.4809768-1.7105285-.3712854-3.5357084.2664755-5.091732.3259155-.7967834.7933962-1.5329201 1.1862178-2.0582369.3931088-.5253168.7118456-.8401025 1.04494-1.1366943.3330943-.2968805.6808333-.5752782 1.0446528-.8305723.3638194-.2552942.7440064-.4874848 1.3665482-.8120896.622829-.3246047 1.4877257-.7419125 2.3847833-1.0737371.8973447-.3321134 1.826563-.5787438 2.7698518-.7442229.9432887-.1654791 1.9006478-.2492294 2.9223285-.2521174 1.0213937-.0028879 2.1071089.0750865 3.1701393.2775313 1.0633176.202156 2.1039503.5290711 3.0880144.9775687.984064.4487863 1.9115595 1.0185774 2.5303684 1.4251998.6182346.4060447.9280698.6486319 1.2218245.9088356.2940419.2602036.5717163.5386013.8301515.8343267.8278543.955909 1.281839 1.8104513 1.5664049 2.7805113.0956211.3269152.1682701.6610501.2213929 1.2172679.0531228.5567954.0867194 1.3359624.0080402 2.1055992-.0786792.7693479-.269347 1.5282993-.5547744 2.250285s-.6656144 1.4064282-1.1319465 2.0065427c-.466332.6001145-1.0188092 1.1159011-1.6132103 1.5742176-.5946883.4583166-1.2310134.859163-1.9020836 1.186367-.6710703.3274927-1.3768857.5810541-2.1809065.8216197-.8037337.2405656-1.7056728.4678467-2.6196722.6281276-2.7552071.4626484-5.5399907.4222172-8.1059658-.3892947-.8344588-.2604925-1.6462327-.5934723-2.4272815-.9908532-.7804745-.397381-1.5302239-.859163-2.2101958-1.4018075-.6799719-.5423556-1.2904535-1.1655737-1.7809062-1.8745637zm38.4996763-26.0668608c-.6598713 1.8892922-.9837769 3.8972788-.959082 5.8994896l-26.7500024.0412976c-.0302087-5.1801031.836698-10.3691588 2.5670657-15.248627 1.7306549-4.879757 4.3250578-9.4499265 7.6206818-13.4335549 3.2953368-3.9839171 7.2918947-7.3812931 11.7473187-9.9847736 4.4554241-2.6034804 9.3700014-4.4133542 14.4439472-5.3195907 10.1536342-1.83673163 20.9209092.0765305 29.8314702 5.2987975 4.458008 2.5994374 8.457438 5.993059 11.756795 9.9737994 3.29907 3.9804516 5.89778 8.5483108 7.633029 13.4263351 1.734962 4.8780242 2.60675 10.0659247 2.580333 15.2463166h-27.495216c.024695-2.0022108-.29921-4.0101974-.959082-5.8994896-.659871-1.8892922-1.655708-3.6601788-2.924338-5.2043618-1.268343-1.544183-2.81034-2.8616626-4.530658-3.8709986-1.720317-1.0096248-3.619529-1.7111061-5.580479-2.0619912-3.9241958-.7113003-8.087588.0335002-11.5267871 2.0619912-1.7203174 1.009336-3.2620274 2.3268156-4.5306574 3.8709986s-2.2644673 3.3150696-2.9243387 5.2043618zm69.9581402 19.2882814c-.447093 1.4676526-.458866 3.0805686-.052261 4.4523415.143288.502502.335391.9917195.695191 1.6094505.359512.617731.887007 1.3636866 1.534531 1.9883487.647236.624662 1.414789 1.1274528 2.244079 1.4708293.829865.3430876 1.722041.5264719 2.387081.6009809.664466.0745089 1.101795.0401424 1.534531-.0181941.432735-.0580476.860589-.1394876 1.283562-.2454751.423259-.1056987.841924-.235945 1.4056-.5293599.563389-.293415 1.271789-.7494212 1.883132-1.3145916.611056-.5651704 1.125055-1.2395051 1.519312-1.9785297.393971-.7390245.667625-1.542739.810051-2.3816864.293468-1.698688.017804-3.5065402-.78191-5.0100033-.401723-.7612617-.93209-1.4523464-1.481695-1.9944133-.549606-.5420669-1.118451-.9351159-1.726922-1.2475913-.608472-.3121866-1.256857-.5443772-1.923333-.6760674-.666189-.1314014-1.350755-.1623024-1.870784-.1582593-.519455.0037543-.874373.0427416-1.226419.0976125-.352334.0548709-.701221.1256255-1.046376.2142853-1.045514.2717555-2.285429.7606842-3.184497 1.6490154-.308399.2954366-.584063.6249508-.835894.9908532-.251544.3664799-.478967.769348-.674803 1.1875221-.196124.4178853-.360374.8504992-.492176 1.292932zm-4.202732 6.7785794c-.490452-.7092787-.860876-1.5043294-1.094904-2.3380785-.481264-1.7105285-.371285-3.5357084.266188-5.091732.325916-.7967834.793397-1.5329201 1.186218-2.0582369.393396-.5253168.711846-.8401025 1.04494-1.1366943.333095-.2968805.680834-.5752782 1.04494-.8305723.36382-.2552942.744007-.4874848 1.366261-.8120896.622542-.3246047 1.487726-.7419125 2.384784-1.0737371.897344-.3321134 1.826563-.5787438 2.769851-.7442229.943289-.1654791 1.900935-.2492294 2.922329-.2521174 1.021394-.0028879 2.107109.0750865 3.170139.2775313 1.063605.202156 2.104238.5290711 3.088015.9775687.984351.4487863 1.911846 1.0185774 2.530368 1.4251998.618522.4060447.92807.6486319 1.222112.9088356.293754.2602036.571429.5386013.829864.8343267.827854.955909 1.281839 1.8104513 1.566405 2.7805113.095334.3269152.16827.6610501.22168 1.2172679.053123.5567954.086719 1.3359624.007753 2.1055992-.078392.7693479-.26906 1.5282993-.554487 2.250285-.285428.7219857-.665902 1.4064282-1.131947 2.0065427-.466332.6001145-1.019096 1.1159011-1.613497 1.5742176-.594401.4583166-1.231014.859163-1.902084 1.186367-.67107.3274927-1.376885.5810541-2.180619.8216197s-1.70596.4678467-2.61996.6278388c-2.754919.4629372-5.53999.422506-8.105678-.3890059-.834459-.2604925-1.646807-.5934723-2.427282-.9908532-.780761-.397381-1.530224-.859163-2.210483-1.4018075-.679972-.5423556-1.290453-1.1655737-1.780906-1.8745637z" fill="#eee" fill-rule="evenodd" opacity=".9" transform="translate(.560773 .2)"/></svg>