<svg height="19" viewBox="0 0 346 19" width="346" xmlns="http://www.w3.org/2000/svg"><path d="m39.4970768 7.76448c.9131246 0 1.6957342-.65232 1.6957342-1.56576 0-1.04352-.7826096-1.69584-1.6957342-1.69584h-35.21311658v3.2616zm6.1495558-1.69968c0 3.65328-2.3473492 5.61024-5.9993677 5.61024h-35.34363147v7.04496h-4.30363343v-18.52608h39.3867149c3.6515387 0 6.2599177 2.73984 6.2599177 5.87088zm58.7921714 1.69968h34.952567c.912645 0 1.695254-.65232 1.695254-1.56576 0-1.04352-.782609-1.69584-1.695254-1.69584h-34.952567zm34.181953-7.57056c3.390989 0 6.912013 1.17456 6.912013 4.56624v2.8704c0 1.4352-.52158 2.60928-2.08632 3.00048 1.434225.78288 2.08632 1.044 2.08632 2.73984v5.34912h-4.434149v-3.91392c0-1.8264-1.173674-2.8704-2.999444-2.8704h-33.778892v6.78432h-4.303633v-18.52608zm116.709126 7.04544h36.778336v-7.04544h4.304113v18.52608h-4.304113v-7.30608h-36.778336v7.30608h-4.303633v-18.52608h4.303633zm-65.201318 7.3056c.912645 0 1.695255-.65232 1.695255-1.56528 0-.91344-.78261-1.56576-1.695255-1.56576h-32.083158c-3.521503 0-5.868852-1.30464-5.868852-4.30512v-2.21808c0-3.2616 1.956284-4.6968 6.520947-4.6968h37.430431v4.04448h-37.952011c-.913124 0-1.695734.65232-1.695734 1.56576 0 .91296.78261 1.56528 1.695734 1.56528h32.083158c3.390509 0 5.868853 1.30464 5.868853 4.3056v2.60928c0 3.00048-2.086799 4.43568-6.520948 4.43568h-37.560945v-4.17504zm18.640121-10.04544c-1.434704 0-2.477864.78288-2.477864 2.47872v4.95744c0 1.69632 1.04316 2.4792 2.477864 2.4792h36.908851v4.30512h-38.21304c-4.043083 0-5.738338-1.56576-5.738338-5.74032v-7.04496c0-4.3056 1.434705-5.7408 5.738338-5.7408h38.21304v4.3056zm-150.7375313 9.93504h29.7358086c1.5647395 0 2.477864-.91344 2.477864-2.47872v-4.95792c0-1.56528-.9131245-2.47872-2.477864-2.47872h-29.7358086c-1.5647395 0-2.4778641.91344-2.4778641 2.47872v4.95792c0 1.56528.9131246 2.47872 2.4778641 2.47872zm-1.299871-14.24064h32.3441876c4.4341483 0 5.7383378 1.82688 5.7383378 5.7408v7.04496c0 4.30512-1.6952544 5.74032-5.7383378 5.74032h-32.3441876c-4.3036334 0-5.7383378-1.56576-5.7383378-5.74032v-7.04496c0-4.3056 1.6952544-5.7408 5.7383378-5.7408zm288.7441013 0v4.17504h-39.2562v3.00048h39.2562v4.17504h-39.2562v2.8704h39.2562v4.30512h-43.559834v-18.52608z" fill="#eee" fill-rule="evenodd" opacity=".9" transform="translate(.519337 .2)"/></svg>