<svg height="58" viewBox="0 0 296 58" width="296" xmlns="http://www.w3.org/2000/svg" xmlns:xlink="http://www.w3.org/1999/xlink"><linearGradient id="a" x1="54.909%" x2="54.909%" y1="50%" y2="8.016%"><stop offset="0" stop-color="#fff" stop-opacity="0"/><stop offset=".51203" stop-color="#e0e0e0" stop-opacity=".262"/><stop offset=".66549" stop-color="#c5c5c5" stop-opacity=".549"/><stop offset=".82415" stop-color="#b5b5b5" stop-opacity=".805"/><stop offset="1" stop-color="#afafaf"/></linearGradient><linearGradient id="b" x1=".039%" x2="90.048%" y1="50.172%" y2="50.172%"><stop offset="0" stop-color="#fff" stop-opacity="0"/><stop offset=".08391" stop-color="#f1f1f1" stop-opacity=".093"/><stop offset=".24826" stop-color="#d4d4d4" stop-opacity=".325"/><stop offset=".44531" stop-color="#c0c0c0" stop-opacity=".555"/><stop offset=".7032" stop-color="#b3b3b3" stop-opacity=".781"/><stop offset="1" stop-color="#afafaf"/></linearGradient><linearGradient id="c" x1="24.956%" x2="99.854%" y1="49.876%" y2="49.876%"><stop offset="0" stop-color="#fff" stop-opacity="0"/><stop offset=".28583" stop-color="#ededed" stop-opacity=".282"/><stop offset=".886" stop-color="#bdbdbd" stop-opacity=".848"/><stop offset="1" stop-color="#afafaf"/></linearGradient><g fill="none" fill-rule="evenodd" opacity=".9" transform="translate(.243094)"><path d="m2.04174155 5.37209395 1.94426023 5.09958605c6.40058522 10.99296 23.25526802 12.1536 25.11252942 29.28096.097675.68688.6363239 1.27584 1.3214853 1.37376 9.7200988 1.52208 19.1500453 5.544 27.357618 12.17088.0488375.04896.097675.04896.1967864.04896.0502739 0 .1479489-.04896.1967864-.09792.097675-.09792.097675-.2952 0-.39312-5.6680227-5.98608-12.6546579-10.79568-20.4226931-13.93632l-2.3959103-.98208c-1.2209375-.4896-2.0511749-1.71792-2.0511749-3.09168.1465125-5.10336 12.1662829-4.0752 13.3872204-6.52608l.1939136-.44208c-2.4921489-2.11248-5.4238353-3.7296-8.6471102-4.6152-.0502739.14832-.1005478.7344.5357761 1.8144.7325625 1.1808-.7814 3.04416-2.9805239 1.03248l-.19535-.14688c-16.0464629-14.858589-28.17269101-7.4040328-34.67445572-23.54555722l-.18833679-.49668278-.73256249-1.91952h9.80197339c8.82809621 0 17.31145711 3.74112 23.55403861 10.04112l46.9127273 47.55168h-58.5188153l-17.75099464-47.0592z" fill="#eee"/><path d="m38.7654833 25.056c.2398783.38592.2384419.88848.0430919 1.2744-.2039684.39744-.6147779.67248-1.1591724.67248v4.01472c1.75815-.4896 3.7633602-.8352 5.4223988-1.17792v-2.25792s-2.6946808.1728-4.3063183-2.5272z" fill="url(#a)"/><path d="m32.3706437 41.472c8.9918454 1.7136 17.7366306 5.64192 25.3581533 11.77632-17.0500329-14.57568-24.7706669-11.97504-25.3567169-11.7792z" fill="url(#b)"/><path d="m.71245293 1.9152 3.27498525 8.58816c6.39914882 10.99296 23.25526802 12.17088 25.11109302 29.29824-1.9046625-21.888-11.4337204-18.648-21.69246807-28.56096-2.63866136-1.9152-4.88374993-4.66272-6.6936102-9.32544z" fill="url(#c)"/><path d="m.24993309 14.17392c0-7.8912 7.95763959-13.97232 19.76482321-13.97232 11.7569098 0 19.7648233 6.08112 19.7648233 13.66992 0 3.3696-1.5024713 6.18192-4.3551558 8.496h7.0053083l-1.6518566 2.86272c-1.0514426 1.81152-2.3528183 2.916-5.1566653 2.8512l-15.9583711.0648c-11.85889399 0-19.41434241-6.18192-19.41434241-13.97088zm19.71598571 7.6392c6.4522955 0 11.956569-3.21696 11.956569-7.6392 0-4.42368-5.4539996-7.64064-11.9580054-7.64064-6.4566046 0-11.9608781 3.21696-11.9608781 7.64064 0 4.4208 5.5042735 7.6392 11.9594417 7.6392zm33.1807716 1.22688-2.9618506 5.04h-7.7565441l12.9606105-22.4496c1.0011688-1.76112 2.5022037-3.168 5.4051621-3.4704h2.901522c2.9517959.3024 4.4025569 1.66032 5.4037257 3.4704l12.959174 22.4496h-7.9059293l-3.0509073-5.04zm15.1999535-5.04-5.7527701-10.4616c-.1508217-.25056-.2513695-.3024-.4510287-.3024-.2010956 0-.3016434.05184-.4495923.3024l-5.7024962 10.4616zm50.8743101 10.08h-7.143202l-20.1483415-16.97328v16.97328h-7.1819852v-25.92h4.464322c2.2019967.3024 3.3525507.9072 4.6036525 1.96128l18.2235692 15.3288v-17.29008h7.181985zm24.41875 0h-7.181985v-20.16h-14.363971v-5.76h35.909926v5.76h-14.36397zm18.673161-5.04-2.852684 5.04h-7.756544l12.96061-22.4496c.999733-1.76112 2.499331-3.168 5.403726-3.4704h2.901522c2.95036.3024 4.401121 1.66032 5.400853 3.4704l12.96061 22.4496h-7.903056l-3.160074-5.04zm15.359394-5.04-5.75277-10.4616c-.150822-.25056-.25137-.3024-.451029-.3024-.201095 0-.301643.05184-.449592.3024l-5.702496 10.4616h12.357323zm15.461378 8.08416 1.752404-5.57856c5.001535 1.60848 10.306149 2.2608 15.110897 2.2608 7.854219 0 9.804846-.90288 9.804846-1.908 0-.4032-.249933-.7056-.900621-.9072-.800073-.24912-2.951796-.70128-9.4084-1.7568-7.102984-1.15632-10.356423-1.75968-12.706369-2.8656-2.351382-1.10592-3.803579-2.8656-3.803579-5.4288 0-1.9584.950895-3.51648 2.502204-4.7736 2.752136-2.11104 7.404626-2.9664 12.459308-2.9664 6.554279 0 12.057116.5544 18.161804 2.06208l.55014.1512-1.450761 5.4288c-6.804213-1.45872-10.607792-1.86048-15.810422-1.96128-3.652758-.0504-6.154962.25056-7.505175.65376-.751236.24912-1.051443.60048-1.051443 1.00368s.25137.70272 1.002606.95472c.800073.25056 2.151722.6048 9.155594 1.70784 7.555449 1.25712 10.057652 1.75968 12.159101 2.5632 2.851248 1.10592 4.553379 3.11616 4.553379 5.6304 0 3.16512-2.45193 5.5296-6.705102 6.83424-2.602751.8064-6.154961 1.25712-10.107926 1.25712-6.254072.0504-12.858626-.75456-17.111797-2.16z" fill="#eee" fill-rule="nonzero" transform="translate(67.510661 18.72)"/></g></svg>