<svg height="118" viewBox="0 0 152 118" width="152" xmlns="http://www.w3.org/2000/svg" xmlns:xlink="http://www.w3.org/1999/xlink"><mask id="a" fill="#fff"><path d="m.00481114.00313442h150.33194886v73.48193138h-150.33194886z" fill="#fff" fill-rule="evenodd"/></mask><g fill="none" fill-rule="evenodd" opacity=".9" transform="translate(.88674 .6)"><path d="m143.889995 21.6326758c-3.890847-4.3076643-9.410265-8.1619622-16.422739-11.4495721-14.024628-6.57521985-32.6189555-10.17996928-52.3214482-10.17996928-19.7027332 0-38.2967396 3.62765484-52.3216884 10.17996928-6.9896214 3.2876099-12.5089591 7.1419078-16.42241902 11.4495721-4.230113 4.716104-6.40170038 9.8173404-6.40170038 15.1001323 0 5.3053759 2.17158738 10.3840284 6.42423255 15.1223948 3.91345995 4.3305698 9.43279755 8.1848676 16.42273975 11.4498936 14.024628 6.5748984 32.6189552 10.1799693 52.3214479 10.1799693 19.7253455 0 38.2967398-3.6276549 52.3214478-10.1799693 7.012474-3.2876099 12.531812-7.1419078 16.42266-11.4498936 4.252645-4.7157825 6.424232-9.794435 6.424232-15.0998108-.022532-5.3279598-2.171587-10.4066123-6.446765-15.1227163z" fill="#fff" mask="url(#a)" transform="translate(0 11.010672)"/><path d="m142.555306 33.8451187c-3.732321-4.1265106-9.048388-7.8448227-15.834418-11.0187896-13.798505-6.4619787-32.098711-10.0214799-51.5524678-10.0214799-19.453837 0-37.7539631 3.5595012-51.5524676 10.0214799-6.763498 3.1739669-12.1020972 6.892279-15.83449799 11.0187896-3.95852426 4.3984019-5.97198556 9.0689362-5.97198556 13.8983617 0 4.829104 2.0134613 9.5222222 5.9494534 13.8983617 3.75493295 4.1490945 9.07099995 7.8670851 15.83441775 11.0413735 13.7985045 6.4616572 32.0987108 10.0214799 51.5524676 10.0214799 19.453837 0 37.7765752-3.5598227 51.5524672-10.0214799 6.786031-3.1742884 12.102098-6.892279 15.834498-11.0413735 3.958525-4.3761395 5.949133-9.0466738 5.949133-13.8983617.022532-4.8294255-1.967996-9.5226241-5.9266-13.8983617z" fill="#0a0f35"/><path d="m63.9032204.04018494-1.0630209 1.29218677c-.8144455.97512764-3.2121564 3.76388177-4.3883193 4.76127186-.5430973.47627185-2.0133811 1.63255318-3.2575414 2.40330023l-5.3611314-2.49403781-11.3554086 5.57758861-4.1624363-9.36373284s-11.7399789 9.77185104-19.0917187 9.45447044c-.6558383 0-3.5513416-.7255792-3.5513416-.7255792l1.2216282 17.6848274 6.31085-.8617258c.2715888 1.836532.5657097 4.6705343.610774 6.416409 0 .4532861-.0902088 6.9378487-1.5833456 12.2658085l-.2487358.8618061.5203246.7025934c.0225322.0229055 2.239264 3.265026 2.57877 10.2254586-1.6741959.9296383-5.9945177 2.9699079-12.96192775 3.8768819l-2.12612212.2722127.63330615 2.0403499c.158527.5443451 4.04905382 13.2409361 9.41026542 22.1287186l.9499592 1.5869835 1.5608134-.9977116c1.040569-.6574255 9.4553298-6.6883002 12.8485453-9.4544704 1.696728.6348416 5.1800722 1.9046855 7.871904 2.6302647.5431775 1.9043641 1.6738751 7.4818724 1.2441603 14.5557069l-.0905296 1.451078 1.380075.4081182c.1130618.0225839 2.8725702.8388203 8.1432522 1.2243546l2.1039107.1359858.6333863.0451679.5202444-.3626289c.3391853-.2495484 7.8493719-5.6000922 9.8850446-7.1193238h.2035913c.9500395 0 3.3932156.2722127 9.0935322 2.1765768l1.8324021.6122577.4748594-1.8817802 4.9764809-19.4759503c1.7193404 1.3603404 4.1850487 3.1969527 6.6507569 4.6027825l.7915125.4533664.8368974-.3855342c.2035914-.0907376 4.0493746-1.8362908 8.4376939-5.509435-.0453851 3.4461796-.3392654 9.0463522-1.492816 16.3244869l-.3169738 1.9496123 10.9709991.4988558.339506-.1814751c2.601382-1.4280923 5.949132-3.0380615 6.740965-3.1287991.022532 0 3.754933-.4988558 9.319656 1.5873049.294121.0904162 2.10367.6119362 4.68244.6119362.429715 0 14.070093-.4759503 14.070093-.4759503l-5.768394-17.9114704v-.0226643c-.022532-.0907376-2.985953-10.8603003-2.985953-10.8603003s-8.776558-8.0940496-9.930509-13.0365555c-.339186-5.849721 7.012474-9.7718511 7.012474-9.7718511l-.972572-4.7841772c.610774-.249227 1.447752-.5214398 2.420324-.6118559.678771-.0681536 1.71926-.0907376 3.05395-.0907376 2.352326 0 4.840566.1133216 4.863419.1133216l1.922611.0907375-.045145-1.9272694-.271508-12.469948v-.2266431l-.067677-.226643c-.113382-.3629503-2.57877-9.11450587-4.411172-12.71949641l-.85951-1.72321039-1.651263.95246333c-.045465.02258394-4.546846 2.60735934-11.762912 4.602461l-1.402607.38553427.09053 1.47366194c.067997 1.15620096-.045145 2.51654136-.248736 3.08355086-.497712 1.5414137-17.734497-4.10392673-17.734497-4.10392673l-13.7082953.88439005-11.5589197-7.93556026-.9503601.68033095-4.2526452 3.10613475-6.1977883-4.37605907z" fill="#fff"/><path d="m130.430676 60.6214662s-8.776879-7.7089172-10.111489-13.7397919c0 0-.723916-6.2349339 6.786351-10.9280521l-.995424-4.9198416s1.786937-1.2017706 4.29803-1.428494c2.510853-.2495485 8.188637 0 8.188637 0l-.271588-12.4698677s-2.510773-8.88778243-4.275178-12.40203539c0 0-4.637295 2.67543262-12.192627 4.7838558 0 0 .135674 3.44650119-.655838 4.69343969 0 0-.746769 1.0881277-5.316067.0452482-4.523913-1.0202955-11.898506-3.151383-13.957031-3.7864657-.022533 0-.045065-.0226643-.067677-.0226643 0 0-11.2876519.6122577-12.0341.7029149l.3843298 3.0836312-5.112155-.1363073s1.4252195-3.7861442 1.4252195-3.8542979c0 0-9.4102654-6.30276595-9.7043864-6.46157681l-5.3157463 3.85429787-7.2614507-5.14648465s-3.0536294 3.65023878-4.5919106 4.96500949c0 0-2.5562379 2.17657682-4.365707 3.0835508l-5.0896228-2.49395744s-.6787714.27221276-1.9003194.81623641c0 0-5.3608106 2.24473043-10.69949 5.32795983l-3.754933-8.88746102s-12.5997292 10.58808742-19.9740012 8.13937822l1.1761629 12.9005698s5.5872549-.9748062 5.5872549-.8840686c0 0 .9728923 5.5320189 1.0634219 8.6837234 0 0-.0228529 6.960513-1.651343 12.7646643 0 0 2.8049737 3.8317139 2.9630998 12.2884728 0 0-4.7728896 3.4009314-14.56772529 4.6705342 0 0 3.91337979 12.9235556 9.22944679 21.720279 0 0 11.6949146-7.7311797 14.0472404-9.9984941 0 0 6.1529645 2.3806359 9.6592418 3.1968723 0 0 1.6284099 6.4616572 1.0404888 16.1656761 0 0 2.6239145.7707471 7.7589224 1.156201l2.10359.1359858s8.6864297-6.1897659 10.111569-7.3004775c0 0 1.1986951-1.0429599 10.6994901 2.0858392l5.6777844-22.2420401s4.3431748 3.8317139 8.59582 6.2578392c0 0 5.587335-2.5168629 10.9256135-7.8900709 0 0 .610774 7.6634278-1.4476714 20.6547352 0 0 6.9444771.4988557 8.3470841.3852128 0 0 5.971986-3.2647046 7.487334-3.3554421 0 0 3.528809-.2040591 9.975895 1.6551371 0 0 2.194199.7029149 5.338358.4988558l10.40561-.3399646s-4.546766-13.8757777-5.021946-15.7123096c-.067917.0454893-2.397711-8.0486407-2.940568-10.3159551z" fill="#0a0f35"/><path d="m22.643381 115.42118c-1.2895454 1.04296-3.1896242 1.677721-5.3612116 1.677721-2.0585256 0-3.8908476-.612177-5.1800722-1.700305-1.1536307-.952544-1.7644047-2.24473-1.7644047-3.740976 0-1.473984.610774-2.743586 1.7869369-3.718393 1.2895454-1.065785 3.1441589-1.72321 5.1801524-1.72321 2.6692996 0 4.7052129.83882 5.9719054 2.426125l-2.5787701.906733c-.8368974-.884068-2.0133811-1.337756-3.3931353-1.337756-2.6464467 0-4.501381 1.473983-4.501381 3.423595 0 1.065785.4973915 1.949854 1.4928159 2.607279.769301.498856 1.8324022.839223 3.0085651.839223 2.0810578 0 3.7549329-.884391 4.4337043-2.153993h-4.9765611v-1.972518h7.7134572v.589272c0 1.587305-.6333061 2.879491-1.8320012 3.877203z" fill="#eee"/><path d="m50.3988368 116.804104-1.1764836-2.19916h-6.5598265l-1.1761629 2.19916h-2.5111735l5.429209-10.248122h3.0764823l5.428808 10.248122z" fill="#eee"/><path d="m45.9200682 108.415178-2.2395848 4.194664h4.501381z" fill="#4331c5"/><g fill="#eee"><path d="m80.868817 116.804104v-7.277893h-.0451445l-4.8634192 5.872385-4.8634993-5.872385h-.0679173v7.277893h-2.4883206v-10.248122h2.9180354l4.5017018 5.441602 4.5013008-5.441602h2.9180355v10.248122z"/><path d="m100.729756 116.804104v-10.248122h11.084141v1.972517h-8.5959v2.086161h5.971985v1.972518h-5.971985v2.244409h9.003083v1.972517z"/><path d="m133.801039 108.301856c-2.126203 0-3.234689.408118-3.234689 1.065544 0 .36287.294121.589593.882363.725499.972572.249629 2.284649.181475 3.867995.317702 3.212156.294475 4.750357 1.065544 4.750357 3.08331 0 2.222066-2.081058 3.536836-5.971905 3.536836-2.556238 0-4.68244-.566607-6.650437-1.926948l1.357223-1.677721c1.741872 1.065544 3.483664 1.586984 5.406275 1.586984 2.058526 0 3.212077-.589594 3.212077-1.428494 0-.906974-1.33461-.906974-3.506197-.99739-3.981137-.181475-5.949133-.952464-5.949133-3.015719 0-2.017766 2.01314-3.287288 5.700397-3.287288 2.510852 0 4.524234.498855 6.01705 1.496245l-1.402287 1.632473c-1.425139-.748082-2.895423-1.111033-4.479089-1.111033z"/><path d="m67.4548828 28.7664662c4.3883192-.4988558 7.690925-2.5395271 7.690925-2.5395271-3.7323206 6.3485767-7.690925 2.5395271-7.690925 2.5395271m16.4678041-8.0489621s-2.2169725 1.7684586-3.6192588 2.3806359c-.0228529 0-.0905296 0-.1359949-.0225839-.2261235-.3173807-1.2440801-1.7910426-1.7417924-2.8794917-.0451445-.1133216-.1130617-.2266431-.135674-.3399646 0 0-.452247-.9070544-1.0856334-3.3554421 0 0-.0679172 2.471052.4973915 4.285 0 0 .5431775 1.7684586 1.4026874 2.6525272.0450643.0454894.0905295.1588109-.0226124.2269645-.3391852.2266431-1.221548.7481632-2.6241551 1.3829244-.0451445.0225839-.1582063.0225839-.2261235-.0225839-.4977924-.4762719-2.8049737-2.8794918-4.2527253-7.3912152 0-.0229054 0-.0229054-.0225322-.0454893 0 0 .2035913 2.947565.7918331 4.5346288.5428568 1.4735816 1.5608134 2.833922 2.1262023 3.3327778.0453851.0452482.135594.1133215.0679173.1814752-.180979.1359858-.9048949.4759503-3.6647241 1.1788652-.0450643 0-.1355939 0-.1581261-.0225839-.2941209-.4081182-1.9906084-2.7206809-2.4657083-3.5824066 0 0-.6784506-1.1788653-2.1715874-5.6001726 0 0 .7238358 7.4592884 3.3026058 9.6585296 0 0-2.1941195 1.1565224-3.7774651.7484042 0 0-.9954245 0-2.7598292-3.6505603 0 0-1.80987-3.8313924-6.2432536-9.2274255-.0228529-.0229054-.0228529-.0681537.0226124-.0681537.3391852-.1359054 1.8774665-.7480827 2.5333048-1.4058297 0 0 2.8049737-3.92213008 4.4563167-5.71349412.0228529-.02258393.045385-.06783217.1130617-.02258393l5.7003968 4.51196455s.0904494.1134019.180979.0226643 2.9860329-2.60735936 2.9860329-2.60735936.0450643-.06807328.1355939 0l3.1216268 1.79112296s.0905296.0451678.1359146-.0226643l2.262117-2.58469507s.0676767-.06815365.1355939-.02258393c.0679974.06783217 3.9359921 3.2872884 3.9359921 3.2872884s.0451445.0907376 0 .1588913c-.2941209.4759503-1.3346097 2.6072789.5653889 5.8719834-.0450643-.0907375 1.0179566 2.0406714.6336269 2.380636"/><path d="m110.02688 30.7164s-.203591 4.9424256-.248976 5.5093546c-.045145.5892719.022532 2.5166218-.339266 3.7409764 0 0-3.754933 10.1573853-5.564723 11.3588345l-.904574-6.7337896-2.330114 4.7612719s.339265-3.6275745 1.24416-4.9424256c0 0 3.257221-6.5071465 3.325138-7.1874775 0 0 .723916-1.4280922.181059-1.7683782 0 0-6.537294-6.5068251-14.0249485-7.4819528l15.8573505-.7029148s6.582439 4.6934396 7.148069 5.16939c0 .0454894-2.330035-.3173806-4.343175-1.7228889m-22.3717923 22.5816832c-5.0670105-.5214397-6.4017004-5.4638652-6.4017004-5.4638652-.2489764 1.7684586.882042 3.2421205.882042 3.2421205-2.0355926-1.3603404-1.8774665-3.1517044-1.8774665-3.1517044-.2486557 2.3353877 1.5157491 4.8067612 1.5157491 4.8067612-2.7372971-2.040591-2.5108528-5.0786525-2.5108528-5.0786525.0451445-4.0357731.1582062-5.509435 2.850038-8.8196288 2.6918318-3.3102743 4.230113-3.4235958 6.0850473-3.7865461 1.8549343-.3625485 4.2751774.1363073 4.2751774.1363073 5.1124757.6800095 6.1530447 3.6502388 6.1530447 3.6502388-1.7418726-1.1791868-3.958845-1.6777211-3.958845-1.6777211 7.3971245 7.776669-.7915926 16.7775319-7.0122338 16.1426903m-42.11967-14.4423853s.882042-2.1539929.5879211-3.1742884c-.0225322-.0678322-.0450644-.1133215-.0676767-.1585698 0 0-5.6552523 5.7134941-13.1651182.7707471 0 0 1.3797542.7029149 2.714364.7029149l.0451445-8.0033925s-1.1761629.3855343-3.4608121 2.7206809c0 0 2.1489751-5.146565 10.7448752-8.0033924 0 0 4.4562365 3.0379811 6.7859499 4.0131087 0 0-.5202444 8.3660213-4.1846477 11.1321915m88.5822743-23.6702127c-.700983-2.5621111-2.329794-5.37344921-2.329794-5.37344921l-6.967089 3.53691721c-2.511093 7.5048582-6.808883 5.8497211-9.93043 5.6682459-3.099094-.1814752-13.504704-4.1716785-13.504704-4.1716785-.203591-.0681536-.248736-.0907376-.248736-.0907376l-7.4421891.8614847s1.2666925 5.2375437.882042 7.2778132c-.3843298 2.0406714-1.8774665 2.5621111-6.5145216 3.3784279-4.6372956.8162364-4.3660276.8162364-7.1030039 2.5165413-2.714364 1.700305-7.3516596 7.1645721-7.3516596 7.1645721-.1810592.0680733-3.8229304.7706667-3.8229304.7706667-3.8454625.680331-5.4288081-.1584894-5.4288081-.1584894-1.8097897-.6348416-4.7732103-3.3783475-4.7732103-3.3783475-.1807384-.1134018-.1356741-.2493073-.1356741-.2493073.7013036-1.451078 1.4702838-3.8317139 1.4702838-3.8317139.2035914-.8614043.1810592-1.2014492-1.7189394-4.3531537-1.651343-2.7206005-1.7644047-2.8565863-3.2346886-4.6931182-1.8098699-2.3806359-8.0078988-6.0082908-8.0078988-6.0082908-.1131419-.0681536-.1810592-.0681536-.1810592-.0681536l-2.9180354 2.584695c-3.3931354.6348416-9.5683915 3.7409764-9.5683915 3.7409764-1.380075-6.0534587-3.7324008-10.1573854-3.7324008-10.1573854-9.8399802 7.5955958-14.6583351 6.4390733-14.6583351 6.4390733l.6108542 7.2326454c6.8768003-.4307825 11.5817726-3.9224515 11.5817726-3.9224515-1.651343 2.4713735-5.6323994 4.5801181-5.6323994 4.5801181 1.7644047 3.718071 2.6013022 6.0308747 2.9180355 8.887461.3166531 2.8569078-1.9229317 12.5154374-1.9229317 12.5154374.5428567.9748061 2.3072614 9.8625886 2.3072614 9.8625886.7692208 5.2598062-.4523271 9.4089007-.4523271 9.4089007l-.0225322-3.5139314-1.9229317-.1814752c-.6333062 1.2014492-2.1941196 2.358052-2.1941196 2.358052-1.2892246.9295579-6.5599066 2.1991607-6.5599066 2.1991607.0905296.2040591 1.3346899 4.8520095 1.8774665 6.2575178.5428567 1.4058297 3.1896242 6.8923593 3.1896242 6.8923593 2.7143639-1.5414941 10.0435715-7.413799 10.0435715-7.413799 1.3571419-1.1336171 2.3523258-1.5643996 2.8500381-1.7684587.4977122-.2040591 1.6061984-.1814751 2.7143639-.3855342 1.0859541-.2040591 5.610188-3.173967 5.610188-3.173967-.3846505-.2947966-2.9859527-6.5523144-3.5516624-8.071546-.5427765-1.5191513-1.4477516-7.8219173-1.4477516-7.8219173-.2941209-.2040591-4.68236.4533664-4.68236.4533664 4.1170513-3.8998675 10.3150801-3.0609668 10.3150801-3.0609668 4.8406465-.1133216 6.152724 9.3410685 6.152724 9.3410685-.2261235.1814752-4.2072601 8.8651986-4.2072601 8.8651986-1.967996 3.4687636-.9728923 6.9830969-.9728923 6.9830969.2941209.4536075 1.6738752 7.7540851 1.6738752 7.7540851.3846504.8389007.9500394 10.3614444.9500394 10.3614444l5.4516609-.0229054c9.8399803-6.2801821 9.1615296-5.8268156 10.4733666-6.1668605 1.3346097-.3399646 6.9219448 1.4059101 6.9219448 1.4059101l4.8183548-11.4951418-11.7854441-4.8064397-.1130617 3.740896c-2.1490553-1.2925083-1.6967281-8.3436785-1.4931368-10.0213996.2035914-1.677721 1.3346098-10.5880874 1.3346098-10.5880874.5428567-2.358052-.6558384-3.7864657-.6558384-3.8768818 0-.0907376-5.3157463-7.7089172-5.3157463-7.7089172-6.650757 6.4164089-14.793929 4.3304893-14.793929 4.3304893 11.17459-.226643 16.2642128-9.227747 16.2642128-9.227747l3.9133798 1.7006264c.0226123.2040591-1.1538713 4.5117234-1.1538713 4.5117234 3.5516623 1.5643996 5.2706018 6.0308747 5.2480696 5.9627211-.0225321-.0451679-2.8728909-2.7658487-2.8728909-2.7658487l-.2938002 2.0177659c.8368975.5895934 1.1986951 1.2925083 1.1986951 1.2925083 1.2441603 1.2469385.7238357 4.1942624.7238357 4.1942624.1130618.1133215-1.7644047 13.5583972-1.7644047 13.5583972l12.2603035 5.2598061c.656159-2.5617896.3395059-6.2349338-.1807385-8.2752837-.5202444-2.0406714-3.4157477-11.6084633-3.4157477-11.6084633-1.4026071-4.9879149.9275073-11.2910024.9275073-11.2910024l2.1035899.340045c-.7689802 6.3711607-.2941209 9.9306619-.2941209 9.9306619 1.5156689 12.9235555 13.5498489 19.2263215 13.5498489 19.2263215 9.8399-5.6453405 15.4047032-12.9232341 15.4047032-12.9232341.407182 3.831714-1.199016 24.8038298-1.199016 24.8038298 1.651263.2718913 3.732401.3855343 3.732401.3855343.407182-.0229055 6.989862-2.6754327 6.989862-2.6754327.203671-.1133215.361797-.0455697.361797-.0455697l11.310585 1.7913641c.497392.0452482 7.419336 0 7.419336 0-2.556237-11.041695-2.895423-18.0929456-2.895423-18.0929456l-10.450754-12.37913v.0225839c.384651 3.8542979.904895 5.1242222 1.085954 5.509435-4.117051-6.2801821-1.967996-11.6310473-1.085954-14.3290638.882363-2.7206809 4.501622-9.0915201 4.501622-9.0915201-.452568-6.8700969-1.787258-9.8173404-1.787258-9.8173404 1.515749.7936524 1.967996 3.6957281 1.967996 3.6957281 4.546766-3.4690851 11.943891-2.6528487 11.943891-2.6528487.158206-5.6001726-.362038-9.8625886-.362038-9.8625886"/></g></g></svg>