<svg height="94" viewBox="0 0 111 94" width="111" xmlns="http://www.w3.org/2000/svg"><path d="m52.7875917 15.1525235.0918833-1.8461738c-10.3094333 1.6352268-19.5958167 5.1683827-28.9233625 8.7172974-7.7531958 2.9498029-15.53482 5.9105264-23.9561125 7.8011705v6.0415736c8.82605708-1.8048 17.14765-4.9168912 25.4521458-8.0224853 8.7201292-3.2609706 17.42145-6.5148912 26.66775-8.2408971l.1669625 2.6868794c10.066775-1.6892353 19.8784042-4.6076588 29.7268792-7.5370029 8.92255-2.6539932 17.8753167-5.31691648 27.0750585-7.08278942.251908-.81287882.499037-1.53208941.727512-2.19716706v-.00011058c.672321-1.95683118 1.183692-3.44519677 1.183692-5.47281824-10.391142 2.03458853-20.4713292 4.95514088-30.5348667 7.87089647-9.1655166 2.65551383-18.3173125 5.30706033-27.6775416 7.28162703zm51.3652503 12.2195853c1.582521 7.4042971 3.634016 17.0030794 1.088416 22.1758441-1.8944.0975942-2.720733.1726559-4.239737.4127706 2.428279-5.3980882.159717-14.6391176-1.6366335-21.9566029-.6362458-2.5917735-1.2131375-4.94205-1.501275-6.7949559-1.7192667.3377088-2.4453917.5703588-3.7473292 1.0807235-.1168583-2.1239853-.2420416-3.1821764-.4840833-5.0884411 3.3884292-1.3133736 5.7585875-1.4109677 14.563508-1.6210853.121021.4402794.233563.8259558.33778 1.183847l.001079.0035941.000308.0006912c.376938 1.2931912.648271 2.2235147.837588 4.0502941-2.896021-.1650529-4.197959-.2175823-6.493038-.1425206.221075 1.7714853.718417 4.0986765 1.273417 6.6958412zm-16.7710212 13.2338177.0001542.0001382c.5879917 4.8238588 1.177525 9.6597441 1.0676042 14.5781559 1.1850791-.5403618 1.7275916-.8330059 2.7958125-1.4184324.0385416-2.0620558.3180458-3.6948911.5685666-5.1592176.5101375-2.9806294.9007959-5.2633088-1.1026-9.0477765l.259-.0693941c.8429834-.2257382 1.3341584-.3573382 2.2613167-.5760265 2.2065875 4.0334294 1.7480958 6.0331412 1.1388292 8.6901618-.3055584 1.3327265-.6490417 2.8307823-.713175 4.8338118 1.06005-.5552912 1.5940833-.8179383 2.7541875-1.2683089.7079333-6.7100794-.6157417-13.8026558-1.9229209-20.8059323-.803825-4.30755-1.6014833-8.5813706-1.9161375-12.7112883-.9848166.4653-1.3854958.7128795-2.1615708 1.1932471.0057042 1.9413765-.2443542 3.5966059-.4826958 5.1745618-.4492417 2.97275-.8568584 5.6709647.5661 9.4901294-.5825959.2891882-.9778792.4939147-1.39675.7109441l-.0003084.0002765-.0010791.0005529h-.0001542l-.0006167.0002765c-.2764208.14335-.563325.2919529-.9213.4737323-1.4511708-3.6126411-.8974041-6.3830147-.2553-9.5943588.3141917-1.5718735.6495042-3.2493588.7811625-5.1828559-.726125.4351647-1.09335.6454206-1.9613083.9980589-.94535 6.6585176-.1523167 13.1631794.6431833 19.6895441zm-4.3487333-6.41315c-1.1767542.262647-1.819475.3451735-3.2967.3451735-.0951208-1.1975324.0356125-2.0565265.2420417-3.4127529l.0334541-.2196559c.0296-.1969853.0622834-.3946618.0948125-.5908177.1860792-1.1264794.3650667-2.2087235-.0615125-2.8989323-.1251833-.2102559-.4339791-.5403618-1.0765458-.5479647-.1919375-.0074647-.8513083 0-1.5106792.5554294-.8511541.7130176-1.3936666 1.8237382-1.6691625 4.1727706-.5065916 4.3201294.148925 6.9271088.8503834 9.7162823.5926166 2.3564971 1.2180708 4.8432118 1.2028083 8.60335l-.0006167.0536353-.000925.0487971c-.0061666.3342529-.021275 1.1597941.1934792 1.8788941.2252375.7655471.7844 1.6061559 2.1281167 1.4260353l.04625-.0049765c.3104916-.0320706 1.1866208-.1224765 1.7480958-1.2033382.5264792-.9395853.5422042-2.1257824.5571583-3.2510177l.0020042-.1563441c.0070917-.4919794.0195792-.939447.0312958-1.357747v-.0001383c.0440917-1.5725647.0766209-2.7311147-.2398833-4.2783823-1.0515708.0750617-1.6107333.0975941-2.8041375.1201264-.2560708-1.5248735-.5463667-2.3614735-.9311667-3.4705353-.1170125-.3374323-.2429666-.7000235-.37925-1.1150058 2.9378.1650529 4.0895792.067597 6.1509417-.3077118 2.22925 4.8249647 2.0874167 8.3618529 1.8982542 13.0835559-.0581209 1.4476-.1205584 3.0066176-.1205584 4.7483823-1.1517791.397703-1.7693708.5778236-3.1463875.8780706-.0069375-.6687823-.0024666-1.0667617.0040084-1.6408529v-.0001383-.0001382-.0002765l.0043166-.39245c-.4423041.8179383-.6092666 1.095653-.9014125 1.4858912-1.2268583 1.636153-2.8625666 1.868803-3.4801583 1.9213324-3.4218833.2926441-5.541675-2.0863853-6.1509417-3.7674647-.3420958-.9607353-.4256541-1.9813265-.4256541-3.0920471 0-3.8733529-.5312584-6.9548941-1.03045-9.8498176-.6004792-3.4828383-1.1544-6.6954265-.6803375-10.6913942.1751333-1.4560323.5841375-2.9119264 1.3936666-4.2852941 2.0948167-3.5874823 6.0590584-4.99845 8.4376959-5.2534941 1.87775-.2026529 3.7473291.1050588 3.8974875 2.9793853.0761583 1.4869971-.2788875 3.2929029-.4238042 4.0299735-.013875.0702236-.0257458.1307706-.03515.1803971-.0581208.319047-.1145458.6197088-.1681958.9055794-.3404 1.8119882-.5701084 3.0350941-.3826417 4.6556265zm-19.2699083 15.1427088v.0002765.0001382c.2500583 3.2591735.4968791 6.4760471.6168208 9.5932529 1.4187958-.3751705 2.20335-.5327588 4.0143458-.7579441-.1265708-2.9669441-.4082333-6.0971441-.6962166-9.298397v-.0001383c-.7560334-8.4029088-1.5560042-17.2951706.2873666-25.0067647-1.9028791.2775765-2.7124083.4051677-4.1563333.69795-1.3602125 7.8997324-.7025375 16.4726706-.0659833 24.7716265zm-6.6769584.6987794c-.6623-4.5541618-1.3209-9.0828882-1.5026625-14.4081265l-.0015416-.0049764c.0724583 2.9115117.2315583 5.7975882.3920458 8.7091v.0001382c.2738 4.9681765.5517625 10.0103088.4107 15.3793676l-.0932708.0514236c-.8479167.4687559-1.2929959.7149529-2.2435875 1.1567529.467125-10.5487353.2754958-21.2926588-.3834125-31.8266029l-.0006167-.0019353.0004625-.0002765-.0004625-.0073265.0029292.0058059c.4780708-.2865617.8812166-.5333117 1.2637041-.7672059.5977042-.3657705 1.1446875-.7003 1.8464542-1.1072647 1.2185333 7.7375824 1.8945542 14.4845706 2.8960208 24.5562559-.0615125-6.5031412-.2926083-11.725947-.5084416-16.599847v-.0001383-.0006912c-.1358209-3.0679941-.265475-5.9976147-.3428667-9.0213735.9014125-.4127706 1.3770167-.6003559 2.4703667-.9380647-1.0571209 7.9949765-.51245 16.3890382.0218916 24.6249588.2166042 3.3376912.4313584 6.6493942.5372709 9.8979236-1.51885.570497-2.1615709.8931382-3.4217292 1.5460235-.2946125-4.0338441-.8201667-7.6469-1.3432542-11.2439206zm-6.9748083-8.2291471v-.0002764c-.0502583-2.9618294-.1003625-5.9211706-.1029833-8.8729088 1.2603125-.5779618 1.7945-.8856736 2.7876416-1.5010971-.0251291-1.8911971-.0501041-2.8593971-.2087416-4.6680677l-.3807917.1860648c-2.8634917 1.3999088-4.6616917 2.2790852-11.0196792 2.7033294.2505209 2.2966411.350575 3.4298941.3923542 5.4712147 2.1948708-.2251853 3.1297375-.4202353 4.7904208-.8780706 0 2.4662559.030525 4.9426029.06105 7.4232353v.0001382.0001382.0001383.0001382.0001383c.0880292 7.143447.1765209 14.322697-.461575 21.4026941 1.7610459-.1875853 2.5204709-.3302441 3.8974875-.667953.478225-6.8390529.3615209-13.7259353.2448167-20.5988559zm-16.2689-11.6725882c1.1850792-.1801206 2.4285875-.0599941 3.6720958.9831294 1.9779584 1.6586853 2.1282709 4.195303 2.1282709 6.4318118v3.6924029l.0001541.0393971c.0020042.3772441.01295 2.4098559-.6512 3.6906059-.0135666.0221176-.0302166.0508706-.0497958.0847382-.113775.1960177-.3286833.5666265-.63455.8609294-.6259167.6003559-1.2686375.8555383-2.6706292 1.3508353.1251834-.0149294 1.0432459.23265 1.6523584.5779618 2.3869625 1.3659029 2.587225 4.3152912 2.587225 5.2309617-.008325 2.7694059-.0917292 4.0001147-.2836667 6.3867471 0 .0067735-.00185.0280618-.0049333.0620676-.0331459.3779353-.204425 2.3266383.5306416 3.3527589.0888.1595235.2064292.2455059.3491875.3500117.045325.0330383.0931167.0680118.1432209.1076853-.5856792.0017971-1.1167834-.0013823-1.615975-.0044235h-.0007709-.0007708-.0007708-.0007709-.0007708-.0007708-.0007709-.0007708-.0007708-.0007709c-1.6309291-.0098147-2.923925-.0176941-4.6857416.1545471-.0334542-.0787942-.0667542-.1463912-.1002084-.21385-.0333-.0675971-.0667541-.1350559-.1000541-.21385-.1669625-.4278383-.4090042-1.133253-.3087959-2.2815736.0226625-.2568411.0445542-.5008264.0655209-.7348588l.0003083-.0041471c.1944042-2.1707088.3121875-3.4849117.3346958-6.2406323.008325-.5252941.008325-1.0732588-.0333-1.6436177-.1335083-1.8686647-1.2852875-2.1914441-2.4871708-1.9962558-.8762833.1425206-1.2936125.225047-2.1031417.4051676 0 4.7752-.1846916 7.3333824-.4409166 10.8802235-.0659834.9126295-.1365917 1.8907824-.209975 2.9890618-1.6942917.4502324-2.4620417.7279471-3.9142917 1.3508353.8429833-9.2102029.7162583-18.5321.5903042-27.7956618v-.0013823c-.0235875-1.7414883-.0473292-3.4810412-.0644417-5.2174147 2.8209417-1.3583 4.3148167-2.0413206 8.3125125-2.6342118zm-.1503125 14.041803c.37555-.630353.4256542-1.1181853.4256542-2.4691589v-3.2796323c0-1.3133736-.1586375-1.7336088-.5758125-2.2065118-.513375-.4831323-1.0111792-.3841559-1.5899209-.2691441l-.0709166.0141c-.9681667.1875853-1.4356.2926441-2.3202084.5327588v9.2386794c.8846084-.2101176 1.3520417-.3077117 2.3202084-.4727647.6092666-.1050588 1.3520416-.3153147 1.8109958-1.0883264zm-19.3290621 24.0910941c.1001621.4353029.367225 1.1257882.9013663 1.6510823 1.0682208 1.0581912 2.3535083.5703588 3.5886916-.2551823 1.2769625-.8555383 2.6373292-2.1539824 3.7390042-4.5480794.587375-1.2772942.4811542-2.136703.3590542-3.1248089-.0687584-.5562588-.14245-1.1531588-.1003625-1.8884323.3121875-5.5733706.2949208-9.1643088.2721041-13.9191883-.006475-1.3471029-.0134125-2.7875147-.0134125-4.3929794 0-2.2665058-.1251833-3.2647029-.40885-4.2103706-.0565791-.1828852-.1105375-.3732352-.1648041-.5653823-.4432292-1.5660677-.9202209-3.2521235-3.1651959-2.0088353-1.9446583 1.0807235-3.2216208 2.7468735-3.9059666 4.0677118-1.2044888 2.3035529-1.1959788 5.16295-1.1936046 5.9575264l.000185.0840471c0 6.9120412-.0834658 11.2949294-.2503821 19.3027618-.0250367 1.3133735.0333771 2.7768705.3421729 3.8501294zm3.9643496-27.5959118c.400525-.7279471.8679583-1.0131265 1.0432458-1.0956529.8095292-.4127706 1.1767542.2175823 1.3269125.7354117.2388042.7315412.2107459 1.9969471.2021125 2.3853883-.0010791.0460323-.00185.0797617-.00185.0988382 0 1.0948235.0021584 2.1075353.0041625 3.0670265v.0011059c.0098667 4.8143205.0169584 8.2849941-.2545291 14.0357205l-.0078625.1679559c-.0547292 1.1810824-.1123875 2.4207765-.7097834 3.5169824-.4090041.7504794-.8764375 1.0881882-1.0182708 1.1707147l-.0033917.0020735c-.1580208.0948294-.9254625.555153-1.2650916-.2347235-.2872125-.6711324-.2357209-1.9368147-.19425-2.9561618l.0021583-.0532206c.2503667-6.9947059.2503667-10.6647147.2503667-16.9987941 0-.1393412-.0010792-.2788206-.0023125-.4185765v-.0004147c-.0095584-1.1548176-.0192709-2.3190353.6283833-3.4236735zm-5.2995562 2.6718118v-4.7282c-1.2066009.4131853-2.2505713.9196794-3.29611422 1.4270029-2.41127458 1.1697471-4.83087416 2.3437794-9.27275345 2.3855265v35.4986853c2.40361095-.0299971 3.46353762-.1875853 5.41645929-.6379559-.02218459-6.6922471-.00504125-9.4396735.0282125-14.7653265l.01352041-2.1884029c1.77566084-.2625088 2.95014875-1.1650471 4.08712797-2.0386941.8135529-.6252383 1.607912-1.2356853 2.5895683-1.58625.0417329-2.1539824.0500733-3.227103.0500733-5.3060236-.9884858.30785-1.7869458.8811118-2.6058175 1.4691647-1.13771915.8169706-2.31487415 1.6622795-4.0959154 1.8629971 0-1.9192588-.0023125-3.2400971-.00450167-4.4916794-.00197333-1.1268941-.00383875-2.1976647-.00383875-3.5986794 1.92930334-.1857883 3.18815125-1.0373177 4.40469582-1.8600941.8463904-.5724324 1.6723075-1.1310412 2.6892834-1.4420706zm-13.0279313 50.6586735v-8.0378294c7.2816-2.5106294 14.1862317-5.4186853 21.0406667-8.305453l.0001541-.0001382c10.8693667-4.5778 21.6124709-9.1023794 33.5327917-11.9053765-.0334542 1.0881883-.0501042 1.636153-.0667542 2.7694059 6.8923292-1.6993264 13.727925-3.5532 20.5584334-5.4058294 11.9035166-3.228347 23.791-6.4524088 35.9347083-8.8462294v6.7845882c-13.9707375 2.9008677-27.5925958 6.9521294-41.2462125 11.0130677-5.3508167 1.5913647-10.7064125 3.18425-16.0899125 4.7098147-.0400833-1.2120471-.0570417-1.8345206-.0880292-2.9676353l-.0037-.1393412c-9.9366583 2.688953-19.1414875 6.6480118-28.3560291 10.6112177-8.2221709 3.5364735-16.45188045 7.0761264-25.2161167 9.7197382z" fill="#ff7b91" fill-rule="evenodd"/></svg>