<svg height="51" viewBox="0 0 190 51" width="190" xmlns="http://www.w3.org/2000/svg"><path d="m36.1931309 0 14.6825338 13.504-50.8756647 11.73504 15.9338714-19.40736 10.6480041 6.52288zm-10.0223353 50.47424-26.1707956-25.2352 50.9480562 11.73248zm39.885094-21.60512 4.4494877-12.08832h4.8385917l-6.6677681 16.87808h-5.2936235l-6.737574-16.87808h4.9950088zm18.5283287.992c2.5854083 0 4.5386843-1.91488 4.5386843-4.65024s-1.953276-4.65024-4.5386843-4.65024-4.5205865 1.91488-4.5205865 4.65024 1.9351782 4.65024 4.5205865 4.65024zm0-13.53216c5.3117213 0 9.2350785 3.79648 9.2350785 8.88192 0 5.08416-3.9233572 8.88192-9.2350785 8.88192-5.2949162 0-9.1988828-3.79648-9.1988828-8.88192s3.9039666-8.88192 9.1988828-8.88192zm26.9089297.45184-6.102856 8.29056 6.208858 8.58752h-5.452626l-3.835454-5.36576-3.7643542 5.36576h-5.3117213l6.2618589-8.5696-6.1028563-8.30848h5.4513334l3.6777435 5.24288 3.658353-5.24288zm30.781871 13.08032c2.585409 0 4.537392-1.91488 4.537392-4.65024s-1.951983-4.65024-4.537392-4.65024c-2.585408 0-4.521879 1.91488-4.521879 4.65024s1.936471 4.65024 4.521879 4.65024zm0-13.53216c5.310429 0 9.235079 3.79648 9.235079 8.88192 0 5.08416-3.92465 8.88192-9.235079 8.88192-5.294916 0-9.200175-3.79648-9.200175-8.88192s3.905259-8.88192 9.200175-8.88192zm33.965802 7.70176h7.546807c-.421422-2.16064-1.741273-3.3792-3.711354-3.3792-2.163987 0-3.430837 1.28896-3.835453 3.3792zm12.15659 1.568c0 .52224-.034903 1.14944-.089197 1.53216h-12.084198c.493813 2.4384 2.216987 3.5008 4.380974 3.5008 1.477561 0 3.077929-.59264 4.309876-1.62048l2.69141 2.92608c-1.933886 1.76-4.39778 2.56-7.263705 2.56-5.223817 0-8.84856-3.51744-8.84856-8.82944s3.518741-8.9344 8.618459-8.9344c4.907105 0 8.26555 3.60576 8.284941 8.86528zm-18.914847-2.23744v10.68416h-4.564539v-9.23008c0-2.42432-1.224191-3.7568-3.305444-3.7568-1.95974 0-3.584669 1.26208-3.584669 3.79264v9.19424h-4.564538v-16.77952h4.441731v1.97248c1.207386-1.78432 3.061124-2.42432 4.983375-2.42432 3.84838.00128 6.594084 2.6496 6.594084 6.5472zm-47.196629 6.49472c2.709508 0 4.399072-2.07488 4.397779-4.65024 0-2.5792-1.688271-4.6528-4.397779-4.6528-2.603506 0-4.379682 1.98528-4.379682 4.6528 0 2.6624 1.776176 4.65024 4.379682 4.65024zm.844136-13.53472c4.713199 0 8.268136 3.8144 8.268136 8.88576 0 5.06752-3.554937 8.88064-8.248746 8.88064-2.357892 0-3.994456-.9408-5.102303-2.29888v1.8624h-4.484391v-23.4176l4.572295-2.45504v10.75584c1.107847-1.32352 2.708215-2.21312 4.995009-2.21312z" fill="#eee" fill-rule="evenodd" opacity=".9" transform="translate(.870166)"/></svg>